<svg id="Layer_1" data-name="Layer 1" xmlns="http://www.w3.org/2000/svg" viewBox="0 0 1200 1200"><defs><style>.cls-1,.cls-4{fill:#2e3191;}.cls-1,.cls-3{opacity:0.4;}.cls-2,.cls-3{fill:#cd298f;}.cls-2,.cls-4,.cls-6{opacity:0.2;}.cls-5{fill:#fff;}.cls-6,.cls-7{fill:#f7dd61;}.cls-7{opacity:0.5;}.cls-8{font-size:36.31px;fill:#231f20;font-family:Montserrat-Light, Montserrat;}.cls-9{font-size:58.4px;font-family:Montserrat-ExtraBold, Montserrat;font-weight:700;}.cls-10{letter-spacing:-0.02em;}.cls-11{letter-spacing:-0.01em;}.cls-12{letter-spacing:0em;}.cls-13{letter-spacing:-0.01em;}.cls-14{font-size:24.21px;font-family:Montserrat-ExtraLight, Montserrat;}.cls-15{letter-spacing:-0.04em;}</style></defs><title>Artboard 1</title><circle class="cls-1" cx="707.5" cy="639.41" r="4.87"/><ellipse class="cls-1" cx="689.25" cy="642.25" rx="2.03" ry="2.84"/><polygon class="cls-2" points="603.79 351.59 547.31 462.53 369.8 422.27 0 438.33 0 682.4 708.68 587.59 717.99 440.37 682.93 362.66 603.79 351.59"/><path class="cls-3" d="M948.07,380.62v36.5l1.35,71.38L1013,550.14S1103.54,455,1118.16,460c12.21,4.21,15.13,19.67,5,70-2.5,12.44,5,21.32,10.11,21.32s13.74-11,8.25-24.1c-7.24-17.26-5.22-82.81-5.22-82.81s1.51-12.61,13.11-31.27C1155.41,402,1200,351,1200,351l-1.15-147.34L992.69,313.3l-12.17,57.59Z"/><polygon class="cls-1" points="851.55 399.27 810.19 382.24 800.45 386.3 787.48 380.62 755.84 400.9 781.39 393.19 791.94 392.79 800.86 396.03 811.4 393.19 851.55 399.27"/><polygon class="cls-4" points="804.51 355.48 807.75 361.56 806.94 377.78 799.24 381.84 785.85 374.13 794.78 359.13 795.99 344.52 804.51 355.48"/><polygon class="cls-4" points="801.67 405.76 831.68 411.85 849.12 409.41 812.22 441.05 769.23 424.01 781.8 409.82 801.67 405.76"/><polygon class="cls-4" points="944.42 411.85 939.15 428.07 925.36 447.94 874.26 490.93 855.06 499.54 820.73 486.87 788.29 490.12 757.06 494.58 794.78 516.07 816.27 520.13 869.4 504.72 835.74 543.25 878.32 521.35 890.89 493.77 933.88 446.72 945.24 425.63 944.42 411.85"/><polygon class="cls-1" points="805.32 339.25 812.22 333.57 821.95 334.79 832.9 338.85 826.82 341.28 821.54 341.28 814.65 342.5 805.32 339.25"/><polygon class="cls-1" points="787.48 341.69 780.58 334.39 769.63 336.41 768.01 340.47 784.64 344.12 787.48 341.69"/><polygon class="cls-4" points="768.01 320.19 761.52 331.14 764.76 340.47 750.43 350.88 755.84 321.81 768.01 320.19"/><path class="cls-4" d="M785.45,270.31,773.28,261l-10.95-6.08-25.14,2.84L723,266.66l7.3,4.06,8.52-8.92,5.76-.58a10.95,10.95,0,1,0,17.15-1.72l1.42-.14,7.71,9.33-2,6.49,10.54,2.43-4.46-8.92Z"/><path class="cls-4" d="M894.14,261.79l-16-3.24a11.71,11.71,0,0,0-3.94-.8l-12.1-2.45-9.33,2-10.14,9.33,9.33-2.84-7.3,9.33L841,276.39l16.63-.81-4.87-7.3,10.14-8.52,3.86.36a11.76,11.76,0,1,0,15.8,1.49l1.83.17,8.52,8.11-2.84,5.68,6.08-5.68,11.36,4.87Z"/><polygon class="cls-4" points="837.76 321.41 843.04 331.14 841.82 338.85 849.12 339.25 863.77 350.44 852.36 329.52 843.44 321.41 837.76 321.41"/><polygon class="cls-4" points="847.09 243.54 865.61 244.08 881.97 239.49 898.6 243.27 915.23 251.65 908.06 237.32 880.75 227.86 858.04 229.75 847.09 243.54"/><polygon class="cls-4" points="783.42 248.41 770.85 233.4 742.05 232.59 717.18 246.25 737.73 241.92 754.63 242.33 769.09 251.11 783.42 248.41"/><circle class="cls-1" cx="873.18" cy="270.04" r="4.6"/><circle class="cls-1" cx="754.49" cy="266.52" r="4.6"/><polygon class="cls-4" points="965.92 327.9 961.05 315.46 965.38 308.43 979.44 310.05 984.85 326.82 978.36 335.47 970.25 337.09 967.54 346.28 963.22 347.9 962.67 341.96 967.54 333.3 965.92 327.9"/><polygon class="cls-4" points="986.47 318.16 975.65 288.96 988.63 285.72 988.63 311.13 986.47 318.16"/><polygon class="cls-4" points="685.82 307.35 693.93 291.67 684.2 283.02 685.82 307.35"/><polygon class="cls-4" points="692.31 316 692.85 341.96 682.57 336.01 684.2 324.11 692.31 316"/><polygon class="cls-1" points="711.5 426.58 732.32 468.49 768.55 618.81 735.57 585.83 708.68 589.61 610.65 525 666.89 498.77 711.5 426.58"/><path class="cls-1" d="M952.94,413.87l2.16,74.62,103.28,97.33H995.93s-4.06,8.92,1.77,16.37c4.9,6.27-2.79,15.46-8.67,13.64a8.58,8.58,0,0,1-5.47-11.1c4.43-11.17,1-18.91,1-18.91H871l-59.21,32.44L922.12,465.78Z"/><path class="cls-1" d="M1058.38,585.83H962.27s-6.49,21.09-.66,28.54c4.9,6.27.46,15.46-5.42,13.64-4.41-1.37-4.87-6.49-3-11.1,4.43-11.17-1.42-31.08-1.42-31.08H871"/><circle class="cls-5" cx="758.68" cy="264.63" r="1.62"/><circle class="cls-5" cx="876.9" cy="268.08" r="1.62"/><polygon class="cls-4" points="838.98 271.52 838.58 260.57 826 271.12 834.11 276.39 838.98 271.52"/><ellipse class="cls-1" cx="1012.15" cy="625.57" rx="5.68" ry="6.08"/><ellipse class="cls-1" cx="1032.84" cy="616.24" rx="2.03" ry="3.65"/><circle class="cls-1" cx="960.24" cy="675.86" r="6.49"/><circle class="cls-1" cx="950.51" cy="680.99" r="3.79"/><ellipse class="cls-6" cx="932.26" cy="662.88" rx="2.84" ry="2.43"/><polygon class="cls-6" points="696.3 242.01 695.67 386.92 732.89 469.98 782.31 676.35 963.49 400.15 862.92 354.64 696.3 242.01"/><polygon class="cls-6" points="673.19 273.64 677.27 361.22 688.39 375.13 732.19 469.85 922.12 623.95 1001.12 275.28 984.64 265.12 891.3 277.07 866.42 282.48 784.97 273.86 748.5 287.76 673.19 273.64"/><polygon class="cls-7" points="796.4 318.16 845.88 340.88 758.28 340.88 796.4 318.16"/><polygon class="cls-6" points="756.25 400.08 783.83 383.05 794.37 387.11 804.91 383.86 853.58 403.33 812.62 395.99 785.04 395.62 756.25 400.08"/><polygon class="cls-6" points="796.4 318.16 805.86 233.27 845.06 343.31 796.4 318.16"/><polygon class="cls-6" points="768.55 494.44 866.42 500.39 797.75 517.7 768.55 494.44"/><polygon class="cls-6" points="949.7 298.16 983.76 268.96 961.97 345.62 953.48 375.48 949.7 298.16"/><polygon class="cls-6" points="979.71 283.56 990.25 322.49 961.97 345.62 979.71 283.56"/><polygon class="cls-6" points="786.39 277.61 742.6 235.97 775.58 238.68 786.39 277.61"/><polygon class="cls-6" points="716.64 275.99 759.9 235.97 712.31 242.46 716.64 275.99"/><polygon class="cls-6" points="840.2 279.23 873.99 241.38 859.93 226.24 840.2 279.23"/><polygon class="cls-6" points="843.71 252.74 898.33 261.39 883.19 233.81 843.71 252.74"/><polygon class="cls-6" points="853.99 263.55 865.34 281.93 840.2 279.23 853.99 263.55"/><polygon class="cls-6" points="728.54 268.96 767.47 285.72 744.22 288.42 728.54 268.96"/><polygon class="cls-6" points="713.94 279.77 728.54 268.96 744.22 288.42 713.94 279.77"/><polygon class="cls-6" points="769.63 337.09 778.28 333.85 786.93 343.04 769.63 337.09"/><polygon class="cls-6" points="805.32 337.63 819.38 332.22 830.74 340.88 805.32 337.63"/><polygon class="cls-6" points="807.48 342.5 812.89 332.22 822.08 340.88 807.48 342.5"/><polygon class="cls-6" points="768.55 340.88 778.28 333.85 786.93 343.04 768.55 340.88"/><polygon class="cls-6" points="784.77 241.38 751.79 237.59 752.87 226.24 784.77 241.38"/><polygon class="cls-6" points="712.31 242.46 752.87 226.24 751.79 237.59 712.31 242.46"/><polygon class="cls-6" points="879.94 240.84 886.97 223.53 917.79 247.87 879.94 240.84"/><polygon class="cls-6" points="845.88 248.95 872.37 222.45 894 232.19 845.88 248.95"/><polygon class="cls-6" points="826.95 277.07 841.55 248.95 877.24 257.6 826.95 277.07"/><polygon class="cls-6" points="837.76 318.16 845.06 343.31 871.29 362.5 837.76 318.16"/><polygon class="cls-6" points="798.83 406.3 804.78 440.37 839.93 413.33 798.83 406.3"/><polygon class="cls-6" points="766.39 411.17 798.83 406.3 804.78 440.37 766.39 411.17"/><polygon class="cls-6" points="691.77 347.9 679.87 332.76 694.47 311.13 691.77 347.9"/><polygon class="cls-6" points="685.82 306.27 694.47 291.67 683.65 281.93 685.82 306.27"/><polygon class="cls-6" points="693.93 269.5 694.47 291.67 683.65 277.07 693.93 269.5"/><polygon class="cls-6" points="691.77 347.9 679.87 332.76 694.47 311.13 691.77 347.9"/><polygon class="cls-6" points="769.09 275.45 764.22 258.14 786.39 279.23 769.09 275.45"/><polygon class="cls-6" points="750.71 245.16 735.57 257.6 765.85 257.33 750.71 245.16"/><polygon class="cls-6" points="893.46 272.2 877.24 257.6 898.33 261.39 893.46 272.2"/><polygon class="cls-6" points="908.06 274.9 898.33 261.39 889.13 275.99 908.06 274.9"/><polygon class="cls-6" points="877.24 257.6 900.49 275.45 892.92 259.22 877.24 257.6"/><polygon class="cls-6" points="849.66 254.36 877.24 257.6 853.99 263.55 849.66 254.36"/><polygon class="cls-6" points="733.4 271.66 725.83 263.55 735.57 257.6 733.4 271.66"/><polygon class="cls-6" points="751.25 257.6 728.54 268.96 735.57 257.6 751.25 257.6"/><polygon class="cls-6" points="777.2 278.69 748 289.5 779.91 289.5 777.2 278.69"/><polygon class="cls-6" points="756.25 400.08 798.83 406.3 798.83 397.65 756.25 400.08"/><polygon class="cls-6" points="853.58 403.33 798.83 397.65 798.83 406.3 853.58 403.33"/><polygon class="cls-6" points="977.82 289.5 991.33 284.1 990.25 322.49 977.82 289.5"/><polygon class="cls-6" points="964.3 316 981.6 312.76 978.36 335.47 964.3 316"/><polygon class="cls-6" points="953.48 375.48 961.59 351.15 978.36 366.83 953.48 375.48"/><polygon class="cls-7" points="979.71 207.04 814.24 600.43 822.9 602.67 938.75 439.9 979.71 207.04"/><polygon class="cls-6" points="792.34 343.31 780.18 376.56 755.84 400.9 733.94 390.35 769.63 341.69 792.34 343.31"/><polyline class="cls-7" points="732.32 468.49 755.84 563.12 798.02 579.34 794.78 516.07 732.32 468.49"/><polygon class="cls-6" points="815.05 380.62 807.75 342.5 834.52 339.25 888.05 388.73 871.83 403.74 815.05 380.62"/><ellipse class="cls-1" cx="640.5" cy="617.71" rx="4.06" ry="4.46"/><ellipse class="cls-1" cx="749.7" cy="712.4" rx="2.84" ry="2.43"/><ellipse class="cls-1" cx="760.15" cy="732.01" rx="10.14" ry="10.95"/><ellipse class="cls-1" cx="647.15" cy="612.53" rx="3.24" ry="2.03"/><ellipse class="cls-1" cx="848.31" cy="593.13" rx="5.27" ry="5.68"/><ellipse class="cls-1" cx="847.5" cy="618.27" rx="1.62" ry="2.43"/><text class="cls-8" transform="translate(152.47 130.24)">PORTFOLIO<tspan class="cls-9"><tspan x="0" y="56.48">ST</tspan><tspan class="cls-10" x="74.93" y="56.48">U</tspan><tspan x="117.85" y="56.48">ART</tspan><tspan x="0" y="112.96">SHE</tspan><tspan class="cls-11" x="123.86" y="112.96">R</tspan><tspan class="cls-12" x="165.85" y="112.96">W</tspan><tspan class="cls-13" x="230.21" y="112.96">O</tspan><tspan x="276.7" y="112.96">OD</tspan></tspan><tspan class="cls-14"><tspan x="0" y="148.01">UI/UX/</tspan><tspan class="cls-15" x="74.26" y="148.01">W</tspan><tspan x="97.38" y="148.01">eb Designer</tspan></tspan></text><path class="cls-6" d="M0,682l736-96-53,97,518,24-1,155s-12.46-22.34-33.73-9.17c-10.46,6.47-24.66,12.28-24,32.23s15,62.38-10.31,53.94c-24-8-5.93-21.82-3.61-40.27C1132,870,1137,808,1085,809.66c-10.88.35-134,57.1-299,34.34-203-28-375.83,0-394.92,6.5s-32,40-26.08,69.5c1,5,5.16,20,5.16,20S372,953,361,953c-15.13,0-10.15-13.45-10.15-13.45,4.76-11.59,2.33-10.91,3.79-13.81C367.14,900.86,341.85,790.67,309,783,219,762-1,889-1,889Z"/></svg>