<svg id="Layer_1" data-name="Layer 1" xmlns="http://www.w3.org/2000/svg" viewBox="0 0 1200 1200"><defs><style>.cls-1,.cls-4{fill:#2e3191;}.cls-1,.cls-3{opacity:0.4;}.cls-2,.cls-3{fill:#cd298f;}.cls-2,.cls-4,.cls-6{opacity:0.2;}.cls-5{fill:#fff;}.cls-6,.cls-7{fill:#f7dd61;}.cls-7{opacity:0.5;}.cls-8{fill:#231f20;}</style></defs><title>Artboard 1</title><circle class="cls-1" cx="707.5" cy="558.41" r="4.87"/><ellipse class="cls-1" cx="689.25" cy="561.25" rx="2.03" ry="2.84"/><polygon class="cls-2" points="603.79 270.59 547.31 381.53 369.8 341.27 0 357.33 0 601.4 708.68 506.59 717.99 359.37 682.93 281.66 603.79 270.59"/><path class="cls-3" d="M948.07,299.62v36.5l1.35,71.38L1013,469.14S1103.54,374,1118.16,379c12.21,4.21,15.13,19.67,5,70-2.5,12.44,5,21.32,10.11,21.32s13.74-11,8.25-24.1c-7.24-17.26-5.22-82.81-5.22-82.81s1.51-12.61,13.11-31.27C1155.41,321,1200,270,1200,270l-1.15-147.34L992.69,232.3l-12.17,57.59Z"/><polygon class="cls-1" points="851.55 318.27 810.19 301.24 800.45 305.3 787.48 299.62 755.84 319.9 781.39 312.19 791.94 311.79 800.86 315.03 811.4 312.19 851.55 318.27"/><polygon class="cls-4" points="804.51 274.48 807.75 280.56 806.94 296.78 799.24 300.84 785.85 293.13 794.78 278.13 795.99 263.52 804.51 274.48"/><polygon class="cls-4" points="801.67 324.76 831.68 330.85 849.12 328.41 812.22 360.05 769.23 343.01 781.8 328.82 801.67 324.76"/><polygon class="cls-4" points="944.42 330.85 939.15 347.07 925.36 366.94 874.26 409.93 855.06 418.54 820.73 405.87 788.29 409.12 757.06 413.58 794.78 435.07 816.27 439.13 869.4 423.72 835.74 462.25 878.32 440.35 890.89 412.77 933.88 365.72 945.24 344.63 944.42 330.85"/><polygon class="cls-1" points="805.32 258.25 812.22 252.57 821.95 253.79 832.9 257.85 826.82 260.28 821.54 260.28 814.65 261.5 805.32 258.25"/><polygon class="cls-1" points="787.48 260.69 780.58 253.39 769.63 255.41 768.01 259.47 784.64 263.12 787.48 260.69"/><polygon class="cls-4" points="768.01 239.19 761.52 250.14 764.76 259.47 750.43 269.88 755.84 240.81 768.01 239.19"/><path class="cls-4" d="M785.45,189.31,773.28,180l-10.95-6.08-25.14,2.84L723,185.66l7.3,4.06,8.52-8.92,5.76-.58a10.95,10.95,0,1,0,17.15-1.72l1.42-.14,7.71,9.33-2,6.49,10.54,2.43-4.46-8.92Z"/><path class="cls-4" d="M894.14,180.79l-16-3.24a11.71,11.71,0,0,0-3.94-.8l-12.1-2.45-9.33,2-10.14,9.33,9.33-2.84-7.3,9.33L841,195.39l16.63-.81-4.87-7.3,10.14-8.52,3.86.36a11.76,11.76,0,1,0,15.8,1.49l1.83.17,8.52,8.11-2.84,5.68,6.08-5.68,11.36,4.87Z"/><polygon class="cls-4" points="837.76 240.41 843.04 250.14 841.82 257.85 849.12 258.25 863.77 269.44 852.36 248.52 843.44 240.41 837.76 240.41"/><polygon class="cls-4" points="847.09 162.54 865.61 163.08 881.97 158.49 898.6 162.27 915.23 170.65 908.06 156.32 880.75 146.86 858.04 148.75 847.09 162.54"/><polygon class="cls-4" points="783.42 167.41 770.85 152.4 742.05 151.59 717.18 165.25 737.73 160.92 754.63 161.33 769.09 170.11 783.42 167.41"/><circle class="cls-1" cx="873.18" cy="189.04" r="4.6"/><circle class="cls-1" cx="754.49" cy="185.52" r="4.6"/><polygon class="cls-4" points="965.92 246.9 961.05 234.46 965.38 227.43 979.44 229.05 984.85 245.82 978.36 254.47 970.25 256.09 967.54 265.28 963.22 266.9 962.67 260.96 967.54 252.3 965.92 246.9"/><polygon class="cls-4" points="986.47 237.16 975.65 207.96 988.63 204.72 988.63 230.13 986.47 237.16"/><polygon class="cls-4" points="685.82 226.35 693.93 210.67 684.2 202.02 685.82 226.35"/><polygon class="cls-4" points="692.31 235 692.85 260.96 682.57 255.01 684.2 243.11 692.31 235"/><polygon class="cls-1" points="711.5 345.58 732.32 387.49 768.55 537.81 735.57 504.83 708.68 508.61 610.65 444 666.89 417.77 711.5 345.58"/><path class="cls-1" d="M952.94,332.87l2.16,74.62,103.28,97.33H995.93s-4.06,8.92,1.77,16.37c4.9,6.27-2.79,15.46-8.67,13.64a8.58,8.58,0,0,1-5.47-11.1c4.43-11.17,1-18.91,1-18.91H871l-59.21,32.44L922.12,384.78Z"/><path class="cls-1" d="M1058.38,504.83H962.27s-6.49,21.09-.66,28.54c4.9,6.27.46,15.46-5.42,13.64-4.41-1.37-4.87-6.49-3-11.1,4.43-11.17-1.42-31.08-1.42-31.08H871"/><circle class="cls-5" cx="758.68" cy="183.63" r="1.62"/><circle class="cls-5" cx="876.9" cy="187.08" r="1.62"/><polygon class="cls-4" points="838.98 190.53 838.58 179.57 826 190.12 834.11 195.39 838.98 190.53"/><ellipse class="cls-1" cx="1012.15" cy="544.57" rx="5.68" ry="6.08"/><ellipse class="cls-1" cx="1032.84" cy="535.24" rx="2.03" ry="3.65"/><circle class="cls-1" cx="960.24" cy="594.86" r="6.49"/><circle class="cls-1" cx="950.51" cy="599.99" r="3.79"/><ellipse class="cls-6" cx="932.26" cy="581.88" rx="2.84" ry="2.43"/><polygon class="cls-6" points="696.3 161.01 695.67 305.92 732.89 388.98 782.31 595.35 963.49 319.15 862.92 273.64 696.3 161.01"/><polygon class="cls-6" points="673.19 192.64 677.27 280.22 688.39 294.13 732.19 388.85 922.12 542.95 1001.12 194.28 984.64 184.12 891.3 196.07 866.42 201.47 784.97 192.86 748.5 206.76 673.19 192.64"/><polygon class="cls-7" points="796.4 237.16 845.88 259.88 758.28 259.88 796.4 237.16"/><polygon class="cls-6" points="756.25 319.08 783.83 302.05 794.37 306.11 804.91 302.86 853.58 322.33 812.62 314.99 785.04 314.62 756.25 319.08"/><polygon class="cls-6" points="796.4 237.16 805.86 152.27 845.06 262.31 796.4 237.16"/><polygon class="cls-6" points="768.55 413.44 866.42 419.39 797.75 436.7 768.55 413.44"/><polygon class="cls-6" points="949.7 217.16 983.76 187.96 961.97 264.62 953.48 294.48 949.7 217.16"/><polygon class="cls-6" points="979.71 202.56 990.25 241.49 961.97 264.62 979.71 202.56"/><polygon class="cls-6" points="786.39 196.61 742.6 154.97 775.58 157.68 786.39 196.61"/><polygon class="cls-6" points="716.64 194.99 759.9 154.97 712.31 161.46 716.64 194.99"/><polygon class="cls-6" points="840.2 198.23 873.99 160.38 859.93 145.24 840.2 198.23"/><polygon class="cls-6" points="843.71 171.74 898.33 180.39 883.19 152.81 843.71 171.74"/><polygon class="cls-6" points="853.99 182.55 865.34 200.93 840.2 198.23 853.99 182.55"/><polygon class="cls-6" points="728.54 187.96 767.47 204.72 744.22 207.42 728.54 187.96"/><polygon class="cls-6" points="713.94 198.77 728.54 187.96 744.22 207.42 713.94 198.77"/><polygon class="cls-6" points="769.63 256.09 778.28 252.84 786.93 262.04 769.63 256.09"/><polygon class="cls-6" points="805.32 256.63 819.38 251.22 830.74 259.88 805.32 256.63"/><polygon class="cls-6" points="807.48 261.5 812.89 251.22 822.08 259.88 807.48 261.5"/><polygon class="cls-6" points="768.55 259.88 778.28 252.84 786.93 262.04 768.55 259.88"/><polygon class="cls-6" points="784.77 160.38 751.79 156.59 752.87 145.24 784.77 160.38"/><polygon class="cls-6" points="712.31 161.46 752.87 145.24 751.79 156.59 712.31 161.46"/><polygon class="cls-6" points="879.94 159.84 886.97 142.53 917.79 166.87 879.94 159.84"/><polygon class="cls-6" points="845.88 167.95 872.37 141.45 894 151.19 845.88 167.95"/><polygon class="cls-6" points="826.95 196.07 841.55 167.95 877.24 176.6 826.95 196.07"/><polygon class="cls-6" points="837.76 237.16 845.06 262.31 871.29 281.5 837.76 237.16"/><polygon class="cls-6" points="798.83 325.3 804.78 359.37 839.93 332.33 798.83 325.3"/><polygon class="cls-6" points="766.39 330.17 798.83 325.3 804.78 359.37 766.39 330.17"/><polygon class="cls-6" points="691.77 266.9 679.87 251.76 694.47 230.13 691.77 266.9"/><polygon class="cls-6" points="685.82 225.27 694.47 210.67 683.65 200.93 685.82 225.27"/><polygon class="cls-6" points="693.93 188.5 694.47 210.67 683.65 196.07 693.93 188.5"/><polygon class="cls-6" points="691.77 266.9 679.87 251.76 694.47 230.13 691.77 266.9"/><polygon class="cls-6" points="769.09 194.45 764.22 177.14 786.39 198.23 769.09 194.45"/><polygon class="cls-6" points="750.71 164.16 735.57 176.6 765.85 176.33 750.71 164.16"/><polygon class="cls-6" points="893.46 191.2 877.24 176.6 898.33 180.39 893.46 191.2"/><polygon class="cls-6" points="908.06 193.91 898.33 180.39 889.13 194.99 908.06 193.91"/><polygon class="cls-6" points="877.24 176.6 900.49 194.45 892.92 178.22 877.24 176.6"/><polygon class="cls-6" points="849.66 173.36 877.24 176.6 853.99 182.55 849.66 173.36"/><polygon class="cls-6" points="733.4 190.66 725.83 182.55 735.57 176.6 733.4 190.66"/><polygon class="cls-6" points="751.25 176.6 728.54 187.96 735.57 176.6 751.25 176.6"/><polygon class="cls-6" points="777.2 197.69 748 208.5 779.91 208.5 777.2 197.69"/><polygon class="cls-6" points="756.25 319.08 798.83 325.3 798.83 316.65 756.25 319.08"/><polygon class="cls-6" points="853.58 322.33 798.83 316.65 798.83 325.3 853.58 322.33"/><polygon class="cls-6" points="977.82 208.5 991.33 203.1 990.25 241.49 977.82 208.5"/><polygon class="cls-6" points="964.3 235 981.6 231.76 978.36 254.47 964.3 235"/><polygon class="cls-6" points="953.48 294.48 961.59 270.15 978.36 285.83 953.48 294.48"/><polygon class="cls-7" points="979.71 126.04 814.24 519.43 822.9 521.67 938.75 358.9 979.71 126.04"/><polygon class="cls-6" points="792.34 262.31 780.18 295.56 755.84 319.9 733.94 309.35 769.63 260.69 792.34 262.31"/><polyline class="cls-7" points="732.32 387.49 755.84 482.12 798.02 498.34 794.78 435.07 732.32 387.49"/><polygon class="cls-6" points="815.05 299.62 807.75 261.5 834.52 258.25 888.05 307.73 871.83 322.74 815.05 299.62"/><ellipse class="cls-1" cx="640.5" cy="536.71" rx="4.06" ry="4.46"/><ellipse class="cls-1" cx="749.7" cy="631.4" rx="2.84" ry="2.43"/><ellipse class="cls-1" cx="760.15" cy="651.01" rx="10.14" ry="10.95"/><ellipse class="cls-1" cx="647.15" cy="531.53" rx="3.24" ry="2.03"/><ellipse class="cls-1" cx="848.31" cy="512.13" rx="5.27" ry="5.68"/><ellipse class="cls-1" cx="847.5" cy="537.27" rx="1.62" ry="2.43"/><path class="cls-8" d="M138.78,123.36c0,5.59-3.63,8.82-9.91,8.82h-6.64v8.06h-2.9V114.83h9.55C135.15,114.83,138.78,118,138.78,123.36Zm-2.8.07c0-3.88-2.65-5.92-7.22-5.92h-6.53v12h6.53C133.33,129.5,136,127.43,136,123.44Z"/><path class="cls-8" d="M167.83,127.54a13.31,13.31,0,0,1-26.61,0c0-7.15,5.88-12.78,13.32-12.78S167.83,120.39,167.83,127.54Zm-23.67,0a10.35,10.35,0,0,0,20.69,0,10.35,10.35,0,0,0-20.69,0Z"/><path class="cls-8" d="M189.76,140.24l-5.34-8.13c-.51,0-1.05.07-1.63.07H176v8.06h-2.9V114.83h9.66c6.35,0,10,3.12,10,8.53,0,4.17-2.07,7-5.74,8.2l6,8.68Zm-7-10.75c4.61,0,7.22-2.07,7.22-6.06s-2.61-5.92-7.22-5.92H176v12Z"/><path class="cls-8" d="M215.43,114.83v2.69h-8.31v22.72h-2.9V117.52h-8.28v-2.69Z"/><path class="cls-8" d="M235.8,114.83v2.69H222.55v9.11h11.87v2.65H222.55v11h-2.9V114.83Z"/><path class="cls-8" d="M264.3,127.54a13.31,13.31,0,0,1-26.61,0c0-7.15,5.88-12.78,13.32-12.78S264.3,120.39,264.3,127.54Zm-23.67,0a10.35,10.35,0,0,0,20.69,0,10.35,10.35,0,0,0-20.69,0Z"/><path class="cls-8" d="M272.5,114.83v22.72h11.14v2.69h-14V114.83Z"/><path class="cls-8" d="M291.28,114.83v25.41h-2.9V114.83Z"/><path class="cls-8" d="M323.19,127.54a13.31,13.31,0,0,1-26.61,0c0-7.15,5.88-12.78,13.32-12.78S323.19,120.39,323.19,127.54Zm-23.67,0a10.35,10.35,0,0,0,20.69,0,10.35,10.35,0,0,0-20.69,0Z"/><path class="cls-8" d="M134.75,164.78c-2,0-3.39.7-3.39,2.22,0,6,21.37,2.45,21.37,17.23,0,8.7-7.71,12.85-16.88,12.85a33.39,33.39,0,0,1-19.68-6.48l4.55-9.23c4.2,3.56,11,6.25,15.24,6.25,2.57,0,4.2-.88,4.2-2.75,0-6.19-21.37-2.28-21.37-16.7,0-7.88,6.72-12.91,16.93-12.91A33,33,0,0,1,152.85,160l-4.5,9.34C144.15,166.94,138.19,164.78,134.75,164.78Z"/><path class="cls-8" d="M190,155.79v9.69H178.14v31.24h-12.2V165.48H154.08v-9.69Z"/><path class="cls-8" d="M212.65,187.09c4,0,6.89-2.86,6.89-7.65V155.79h12.15v23.65c0,10.86-7.42,17.81-19.1,17.81s-19.39-6.95-19.39-17.81V155.79h12.15v23.65C205.35,184.17,208.56,187.09,212.65,187.09Z"/><path class="cls-8" d="M264.33,190.18H247.81l-2.45,6.54h-12.5l17.46-40.94h12.5l16.88,40.94h-13Zm-3.21-8.88-4.91-13.37-5,13.37Z"/><path class="cls-8" d="M306.67,196.72l-5.43-11h-6.42v11H282.67V155.79h19.1c11,0,17.29,5.26,17.29,14.54,0,6.07-2.45,10.51-6.89,13l8.29,13.37Zm-11.85-20.38h6.95c3.62,0,5.72-2,5.72-5.66s-2.1-5.55-5.72-5.55h-6.95Z"/><path class="cls-8" d="M357.89,155.79v9.69H346v31.24h-12.2V165.48H321.92v-9.69Z"/><path class="cls-8" d="M134.75,221.26c-2,0-3.39.7-3.39,2.22,0,6,21.37,2.45,21.37,17.23,0,8.7-7.71,12.85-16.88,12.85a33.39,33.39,0,0,1-19.68-6.48l4.55-9.23c4.2,3.56,11,6.25,15.24,6.25,2.57,0,4.2-.88,4.2-2.75,0-6.19-21.37-2.28-21.37-16.7,0-7.88,6.72-12.91,16.93-12.91a33,33,0,0,1,17.11,4.73l-4.5,9.34C144.15,223.42,138.19,221.26,134.75,221.26Z"/><path class="cls-8" d="M169.32,212.27v16.29h14.54V212.27H196V253.2H183.86V238H169.32V253.2H157.17V212.27Z"/><path class="cls-8" d="M236.36,212.27v9.34H215V228h19.33v9.34H215v6.48h21.9v9.34h-34V212.27Z"/><path class="cls-8" d="M266.79,253.2l-5.43-11h-6.42v11H242.79V212.27h19.1c11,0,17.29,5.26,17.29,14.54,0,6.07-2.45,10.51-6.89,13l8.29,13.37Zm-11.85-20.38h6.95c3.62,0,5.72-2,5.72-5.66s-2.1-5.55-5.72-5.55h-6.95Z"/><path class="cls-8" d="M294.12,212.27l7,28.32L308,212.27h11.85l7,28.32,6.83-28.32h12.44L332.66,253.2h-12.5l-6.54-26.1L307,253.2h-12.5l-13.31-40.94Z"/><path class="cls-8" d="M391.41,232.71c0,12-9.46,21-22.31,21s-22.31-8.93-22.31-21,9.46-20.79,22.31-20.79S391.41,220.73,391.41,232.71Zm-32.18.06c0,6.19,4.67,10.8,10,10.8S379,239,379,232.76s-4.32-10.69-9.69-10.69S359.23,226.57,359.23,232.76Z"/><path class="cls-8" d="M437.89,232.71c0,12-9.46,21-22.31,21s-22.31-8.93-22.31-21,9.46-20.79,22.31-20.79S437.89,220.73,437.89,232.71Zm-32.18.06c0,6.19,4.67,10.8,10,10.8s9.69-4.61,9.69-10.8-4.32-10.69-9.69-10.69S405.72,226.57,405.72,232.76Z"/><path class="cls-8" d="M482.39,232.71c0,12.32-8.93,20.5-22.42,20.5H442.45V212.27h17.93C473.64,212.27,482.39,220.38,482.39,232.71Zm-12.38.12c0-6.6-4-11-9.87-11H454.6v21.84h6.13C466.28,243.68,470,239.36,470,232.82Z"/><path class="cls-8" d="M124.79,286.55c3.22,0,5.15-1.94,5.15-5.28v-10h1.94v10c0,4.43-2.66,7-7.09,7s-7.14-2.61-7.14-7v-10h1.94v10C119.59,284.62,121.57,286.55,124.79,286.55Z"/><path class="cls-8" d="M138.57,271.31v16.94h-1.94V271.31Z"/><path class="cls-8" d="M150.09,268.4l-7.57,22.8h-1.65l7.55-22.8Z"/><path class="cls-8" d="M158.12,286.55c3.22,0,5.15-1.94,5.15-5.28v-10h1.94v10c0,4.43-2.66,7-7.09,7s-7.14-2.61-7.14-7v-10h1.94v10C152.92,284.62,154.9,286.55,158.12,286.55Z"/><path class="cls-8" d="M170.64,271.31l4.67,6.61,4.72-6.61h2.27l-5.76,8.13,6.24,8.81h-2.32l-5.15-7.14-5.11,7.14h-2.27l6.22-8.71-5.78-8.23Z"/><path class="cls-8" d="M192.45,268.4l-7.57,22.8h-1.65l7.55-22.8Z"/><path class="cls-8" d="M193.39,271.31,198,286.07l4.6-14.76h1.94l4.65,14.76,4.6-14.76h2l-5.69,16.94h-2l-4.57-14.35L199,288.25h-2l-5.66-16.94Z"/><path class="cls-8" d="M227.88,282.59H217.48a4.5,4.5,0,0,0,4.62,4.16,5.34,5.34,0,0,0,3.94-1.62l1,1.09a6.77,6.77,0,0,1-5.13,2.11,6.44,6.44,0,0,1,0-12.87C226,275.45,228.07,278.28,227.88,282.59Zm-1.69-1.5a4,4,0,0,0-4.26-4.07,4.3,4.3,0,0,0-4.45,4.07Z"/><path class="cls-8" d="M244.17,281.91c0,3.78-2.47,6.41-6.07,6.41a5.34,5.34,0,0,1-5-2.81v2.73h-1.89v-18h1.89v8a5.32,5.32,0,0,1,4.91-2.81C241.65,275.45,244.17,278.11,244.17,281.91Zm-1.91,0a4.57,4.57,0,1,0-4.55,4.79A4.52,4.52,0,0,0,242.26,281.86Z"/><path class="cls-8" d="M270.58,279.78a8.46,8.46,0,0,1-8.78,8.47H255V271.31h6.85A8.43,8.43,0,0,1,270.58,279.78Zm-2,0a6.65,6.65,0,0,0-6.8-6.7H257v13.36h4.94A6.58,6.58,0,0,0,268.62,279.8Z"/><path class="cls-8" d="M284.84,282.59H274.43a4.5,4.5,0,0,0,4.62,4.16,5.34,5.34,0,0,0,3.94-1.62l1,1.09a6.77,6.77,0,0,1-5.13,2.11,6.44,6.44,0,0,1,0-12.87C283,275.45,285,278.28,284.84,282.59Zm-1.69-1.5a4,4,0,0,0-4.26-4.07,4.3,4.3,0,0,0-4.45,4.07Z"/><path class="cls-8" d="M291.35,277c-1.43,0-2.52.51-2.52,1.72,0,2.88,7.11,1.4,7.11,6,0,2.49-2.23,3.61-4.67,3.61a7.2,7.2,0,0,1-4.89-1.79l.73-1.38a6.46,6.46,0,0,0,4.23,1.62c1.5,0,2.71-.58,2.73-1.86.07-3.1-7.07-1.52-7-6,0-2.42,2.11-3.46,4.43-3.46a7.58,7.58,0,0,1,4.07,1.16l-.73,1.45A6.71,6.71,0,0,0,291.35,277Z"/><path class="cls-8" d="M301.2,271.87a1.24,1.24,0,1,1-2.47,0,1.24,1.24,0,1,1,2.47,0Zm-.29,3.65v12.73H299V275.52Z"/><path class="cls-8" d="M316.62,275.52v11.4c0,3.73-2.54,6.07-6.41,6.07a8.46,8.46,0,0,1-5.23-1.86l.87-1.38a6.54,6.54,0,0,0,4.28,1.62c2.78,0,4.6-1.72,4.6-4.4V285a5,5,0,0,1-4.69,2.66c-3.44,0-5.81-2.54-5.81-6.15s2.35-6.08,5.76-6.1a5.06,5.06,0,0,1,4.74,2.66v-2.59Zm-1.89,6.07a4.37,4.37,0,1,0-4.36,4.55A4.31,4.31,0,0,0,314.73,281.59Z"/><path class="cls-8" d="M332.57,280.41v7.84h-1.89v-7.36a3.33,3.33,0,0,0-3.61-3.63,4.17,4.17,0,0,0-4.28,4.16v6.82H320.9V275.52h1.89v2.81a5,5,0,0,1,4.94-2.88C330.78,275.45,332.57,277.31,332.57,280.41Z"/><path class="cls-8" d="M347.77,282.59H337.36a4.5,4.5,0,0,0,4.62,4.16,5.34,5.34,0,0,0,3.94-1.62l1,1.09a6.77,6.77,0,0,1-5.13,2.11,6.44,6.44,0,0,1,0-12.87C345.93,275.45,348,278.28,347.77,282.59Zm-1.69-1.5a4,4,0,0,0-4.26-4.07,4.3,4.3,0,0,0-4.45,4.07Z"/><path class="cls-8" d="M357.48,275.45v1.84a4.24,4.24,0,0,0-4.57,4.19v6.78H351V275.52h1.89v2.83A4.76,4.76,0,0,1,357.48,275.45Z"/><path class="cls-6" d="M0,601l736-96-53,97,518,24-1,155s-12.46-22.34-33.73-9.17c-10.46,6.47-24.66,12.28-24,32.23s15,62.38-10.31,53.94c-24-8-5.93-21.82-3.61-40.27C1132,789,1137,727,1085,728.66c-10.88.35-134,57.1-299,34.34-203-28-375.83,0-394.92,6.5s-32,40-26.08,69.5c1,5,5.16,20,5.16,20S372,872,361,872c-15.13,0-10.15-13.45-10.15-13.45,4.76-11.59,2.33-10.91,3.79-13.81C367.14,819.86,341.85,709.67,309,702,219,681-1,808-1,808Z"/></svg>