<svg id="Layer_1" data-name="Layer 1" xmlns="http://www.w3.org/2000/svg" viewBox="0 0 56 56"><defs><style>.cls-1{fill:#eee;}.cls-2{fill:#ddd;}.cls-3{fill:#bbb;}.cls-4{fill:#fff;}.cls-4,.cls-5{stroke:#000;stroke-miterlimit:10;stroke-width:2px;}.cls-5{fill:none;}</style></defs><title>Artboard 1</title><circle class="cls-1" cx="28" cy="22.5" r="16.5"/><circle class="cls-2" cx="28" cy="22.5" r="12.38"/><circle class="cls-3" cx="28" cy="22.5" r="7.56"/><path class="cls-4" d="M30.51,31.57V22.14s0-3.14-2.36-3.14-2.36,3.14-2.36,3.14V33.93l-3.14-.79,1.57,12.57S25.8,52,34.44,52s8.64-6.29,8.64-6.29,1.28-10.31-1.85-11.46C39.64,33.66,30.51,31.57,30.51,31.57Z"/><line class="cls-5" x1="43.59" y1="12.32" x2="36.66" y2="16.32"/><line class="cls-5" x1="36.63" y1="6.09" x2="32.63" y2="13.02"/><line class="cls-5" x1="27.5" y1="4.18" x2="27.5" y2="12.18"/><line class="cls-5" x1="18.63" y1="7.09" x2="22.63" y2="14.02"/><line class="cls-5" x1="12.41" y1="14.05" x2="19.34" y2="18.05"/></svg>