<svg xmlns="http://www.w3.org/2000/svg" viewBox="0 0 523.69 234.43"><defs><style>.cls-1,.cls-15,.cls-16,.cls-17,.cls-19,.cls-2{fill:#fff;}.cls-2{font-size:32px;font-family:SquadaOne-Regular, Squada One;}.cls-3{fill:#37973c;}.cls-4{fill:#5e9f37;}.cls-5{fill:#f47631;}.cls-6{fill:#f16030;}.cls-7{fill:#ef412f;}.cls-8{fill:#faa432;}.cls-9{fill:#f78d32;}.cls-10{fill:#f47d31;}.cls-11{fill:#fcb132;}.cls-12{fill:#e9e611;}.cls-13{fill:#b5c223;}.cls-14{fill:#bfd730;}.cls-15{opacity:0;}.cls-16{opacity:0.8;}.cls-17{opacity:0.6;}.cls-18{fill:#ddebc1;}.cls-19{opacity:0.4;}</style></defs><title>Asset 6</title><g id="Layer_2" data-name="Layer 2"><g id="Layer_1-2" data-name="Layer 1"><path class="cls-1" d="M502.36,124.75,521,52.09H177.79l-29.43-42-36,32L94.19,88,60.67,17,11.54,0,0,47.74l10.57,56.12,40.63,90.59,48,29,25.5-27.31,399-.05ZM213.93,88.39H187.27v26.14h24.94v18.92H187.27v26.66h26.66v20H163.19V68.78h50.74Zm78.09,16q0,13.76-9.8,17.54,8.6,3.1,8.6,14.1v44H266.73V137.92q0-3.44-3.27-3.44H251.94v45.58H227.86V68.78h42.83q21.33,0,21.33,22.7Zm69.32-15.14H343.27v90.82H319.19V89.25H301.13V68.78h60.2Zm61.75-.86H396.42v26.14h24.94v18.92H396.42v26.66h26.66v20H372.34V68.78h50.74Zm43.86,52.8-11.7,38.87H430l20-55.73L432.53,68.78h23.39l11,35.95,11-35.95h23.56l-17.72,55.56,20,55.73H478.63Z"/><path class="cls-1" d="M264.67,85.12H251.94v32.51h12.73a3,3,0,0,0,2.32-1,3.46,3.46,0,0,0,.95-2.41V88.56a3.47,3.47,0,0,0-.95-2.41A3,3,0,0,0,264.67,85.12Z"/><text class="cls-2" transform="translate(161.92 228.16)">BOULDERING GYM</text><polygon class="cls-3" points="139.84 88.46 109.75 170.03 92.78 150.45 101.19 97.78 139.84 88.46"/><polygon class="cls-4" points="101.19 97.78 121.15 52.49 147.96 27.83 139.84 88.46 101.19 97.78"/><polygon class="cls-5" points="22.61 99.7 12.39 46.21 16.77 14.53 37.72 87.11 22.61 99.7"/><polygon class="cls-6" points="37.72 87.11 67.99 168.78 62.99 182.78 22.61 99.7 37.72 87.11"/><polygon class="cls-7" points="67.99 168.78 96.87 205.84 62.99 182.78 67.99 168.78"/><polygon class="cls-8" points="64.75 82.26 48.69 25.28 16.77 14.53 37.72 87.11 64.75 82.26"/><polygon class="cls-9" points="79.95 159.16 64.75 82.26 37.72 87.11 67.99 168.78 79.95 159.16"/><polygon class="cls-10" points="67.99 168.78 96.87 205.84 79.95 159.16 67.99 168.78"/><polygon class="cls-11" points="92.86 150.78 79.82 83.58 52.67 26.62 48.69 25.28 64.36 82.41 79.95 159.16 92.86 150.78"/><polygon class="cls-12" points="109.75 170.03 92.8 150.45 79.95 159.16 109.75 170.03"/><polygon class="cls-13" points="79.95 159.16 96.87 205.84 109.75 170.03 79.95 159.16"/><polygon class="cls-14" points="171.57 61.74 160.28 105.22 125.67 170.12 96.87 205.84 109.75 170.03 139.84 88.46 147.96 27.83 171.57 61.74"/><polygon class="cls-15" points="37.55 86.62 31.82 66.97 60.82 70.03 64.69 85.03 37.55 86.62"/><polygon class="cls-16" points="60.19 67.16 79.74 83.53 64.35 82.38 60.19 67.16"/><polygon class="cls-17" points="79.79 83.56 83.78 103.03 68.86 104.2 64.36 82.33 79.79 83.56"/><polygon class="cls-18" points="160.28 105.22 139.84 88.46 142.13 71.38 160.28 105.22"/><polygon class="cls-19" points="139.84 88.46 134.79 102.22 154.19 116.63 160.28 105.22 139.84 88.46"/></g></g></svg>