<svg id="Layer_1" data-name="Layer 1" xmlns="http://www.w3.org/2000/svg" viewBox="0 0 1200 1200"><defs><style>.cls-1,.cls-4{fill:#2e3191;}.cls-1,.cls-3{opacity:0.4;}.cls-2,.cls-3{fill:#cd298f;}.cls-2,.cls-4,.cls-6{opacity:0.2;}.cls-5{fill:#fff;}.cls-6,.cls-7{fill:#f7dd61;}.cls-7{opacity:0.5;}.cls-8{font-size:58.89px;}.cls-11,.cls-8{font-family:Montserrat-ExtraBold, Montserrat;font-weight:700;}.cls-9{letter-spacing:-0.01em;}.cls-10{letter-spacing:0em;}.cls-11{font-size:42.06px;}.cls-12{letter-spacing:-0.03em;}.cls-13{letter-spacing:-0.03em;}.cls-14{letter-spacing:-0.03em;}.cls-15{font-size:33.65px;font-family:Montserrat-Regular, Montserrat;}.cls-16{letter-spacing:-0.02em;}.cls-17{font-size:30.29px;font-family:Montserrat-ExtraLight, Montserrat;}.cls-18{letter-spacing:-0.02em;}.cls-19{letter-spacing:-0.02em;}.cls-20{letter-spacing:-0.01em;}.cls-21{letter-spacing:-0.07em;}.cls-22{letter-spacing:-0.08em;}.cls-23{letter-spacing:-0.02em;}.cls-24{letter-spacing:-0.07em;}.cls-25{letter-spacing:0em;}.cls-26{letter-spacing:0em;}.cls-27{letter-spacing:-0.02em;}.cls-28{letter-spacing:-0.06em;}.cls-29{letter-spacing:-0.01em;}.cls-30{letter-spacing:0em;}.cls-31{letter-spacing:-0.06em;}.cls-32{letter-spacing:0em;}.cls-33{letter-spacing:-0.01em;}</style></defs><title>Artboard 1</title><circle class="cls-1" cx="707.5" cy="558.41" r="4.87"/><ellipse class="cls-1" cx="689.25" cy="561.25" rx="2.03" ry="2.84"/><polygon class="cls-2" points="603.79 270.59 547.31 381.53 369.8 341.27 0 357.33 0 601.4 708.68 506.59 717.99 359.37 682.93 281.66 603.79 270.59"/><path class="cls-3" d="M948.07,299.62v36.5l1.35,71.38L1013,469.14S1103.54,374,1118.16,379c12.21,4.21,15.13,19.67,5,70-2.5,12.44,5,21.32,10.11,21.32s13.74-11,8.25-24.1c-7.24-17.26-5.22-82.81-5.22-82.81s1.51-12.61,13.11-31.27C1155.41,321,1200,270,1200,270l-1.15-147.34L992.69,232.3l-12.17,57.59Z"/><polygon class="cls-1" points="851.55 318.27 810.19 301.24 800.45 305.3 787.48 299.62 755.84 319.9 781.39 312.19 791.94 311.79 800.86 315.03 811.4 312.19 851.55 318.27"/><polygon class="cls-4" points="804.51 274.48 807.75 280.56 806.94 296.78 799.24 300.84 785.85 293.13 794.78 278.13 795.99 263.52 804.51 274.48"/><polygon class="cls-4" points="801.67 324.76 831.68 330.85 849.12 328.41 812.22 360.05 769.23 343.01 781.8 328.82 801.67 324.76"/><polygon class="cls-4" points="944.42 330.85 939.15 347.07 925.36 366.94 874.26 409.93 855.06 418.54 820.73 405.87 788.29 409.12 757.06 413.58 794.78 435.07 816.27 439.13 869.4 423.72 835.74 462.25 878.32 440.35 890.89 412.77 933.88 365.72 945.24 344.63 944.42 330.85"/><polygon class="cls-1" points="805.32 258.25 812.22 252.57 821.95 253.79 832.9 257.85 826.82 260.28 821.54 260.28 814.65 261.5 805.32 258.25"/><polygon class="cls-1" points="787.48 260.69 780.58 253.39 769.63 255.41 768.01 259.47 784.64 263.12 787.48 260.69"/><polygon class="cls-4" points="768.01 239.19 761.52 250.14 764.76 259.47 750.43 269.88 755.84 240.81 768.01 239.19"/><path class="cls-4" d="M785.45,189.31,773.28,180l-10.95-6.08-25.14,2.84L723,185.66l7.3,4.06,8.52-8.92,5.76-.58a10.95,10.95,0,1,0,17.15-1.72l1.42-.14,7.71,9.33-2,6.49,10.54,2.43-4.46-8.92Z"/><path class="cls-4" d="M894.14,180.79l-16-3.24a11.71,11.71,0,0,0-3.94-.8l-12.1-2.45-9.33,2-10.14,9.33,9.33-2.84-7.3,9.33L841,195.39l16.63-.81-4.87-7.3,10.14-8.52,3.86.36a11.76,11.76,0,1,0,15.8,1.49l1.83.17,8.52,8.11-2.84,5.68,6.08-5.68,11.36,4.87Z"/><polygon class="cls-4" points="837.76 240.41 843.04 250.14 841.82 257.85 849.12 258.25 863.77 269.44 852.36 248.52 843.44 240.41 837.76 240.41"/><polygon class="cls-4" points="847.09 162.54 865.61 163.08 881.97 158.49 898.6 162.27 915.23 170.65 908.06 156.32 880.75 146.86 858.04 148.75 847.09 162.54"/><polygon class="cls-4" points="783.42 167.41 770.85 152.4 742.05 151.59 717.18 165.25 737.73 160.92 754.63 161.33 769.09 170.11 783.42 167.41"/><circle class="cls-1" cx="873.18" cy="189.04" r="4.6"/><circle class="cls-1" cx="754.49" cy="185.52" r="4.6"/><polygon class="cls-4" points="965.92 246.9 961.05 234.46 965.38 227.43 979.44 229.05 984.85 245.82 978.36 254.47 970.25 256.09 967.54 265.28 963.22 266.9 962.67 260.96 967.54 252.3 965.92 246.9"/><polygon class="cls-4" points="986.47 237.16 975.65 207.96 988.63 204.72 988.63 230.13 986.47 237.16"/><polygon class="cls-4" points="685.82 226.35 693.93 210.67 684.2 202.02 685.82 226.35"/><polygon class="cls-4" points="692.31 235 692.85 260.96 682.57 255.01 684.2 243.11 692.31 235"/><polygon class="cls-1" points="711.5 345.58 732.32 387.49 768.55 537.81 735.57 504.83 708.68 508.61 610.65 444 666.89 417.77 711.5 345.58"/><path class="cls-1" d="M952.94,332.87l2.16,74.62,103.28,97.33H995.93s-4.06,8.92,1.77,16.37c4.9,6.27-2.79,15.46-8.67,13.64a8.58,8.58,0,0,1-5.47-11.1c4.43-11.17,1-18.91,1-18.91H871l-59.21,32.44L922.12,384.78Z"/><path class="cls-1" d="M1058.38,504.83H962.27s-6.49,21.09-.66,28.54c4.9,6.27.46,15.46-5.42,13.64-4.41-1.37-4.87-6.49-3-11.1,4.43-11.17-1.42-31.08-1.42-31.08H871"/><circle class="cls-5" cx="758.68" cy="183.63" r="1.62"/><circle class="cls-5" cx="876.9" cy="187.08" r="1.62"/><polygon class="cls-4" points="838.98 190.53 838.58 179.57 826 190.12 834.11 195.39 838.98 190.53"/><ellipse class="cls-1" cx="1012.15" cy="544.57" rx="5.68" ry="6.08"/><ellipse class="cls-1" cx="1032.84" cy="535.24" rx="2.03" ry="3.65"/><circle class="cls-1" cx="960.24" cy="594.86" r="6.49"/><circle class="cls-1" cx="950.51" cy="599.99" r="3.79"/><ellipse class="cls-6" cx="932.26" cy="581.88" rx="2.84" ry="2.43"/><polygon class="cls-6" points="696.3 161.01 695.67 305.92 732.89 388.98 782.31 595.35 963.49 319.15 862.92 273.64 696.3 161.01"/><polygon class="cls-6" points="673.19 192.64 677.27 280.22 688.39 294.13 732.19 388.85 922.12 542.95 1001.12 194.28 984.64 184.12 891.3 196.07 866.42 201.47 784.97 192.86 748.5 206.76 673.19 192.64"/><polygon class="cls-7" points="796.4 237.16 845.88 259.88 758.28 259.88 796.4 237.16"/><polygon class="cls-6" points="756.25 319.08 783.83 302.05 794.37 306.11 804.91 302.86 853.58 322.33 812.62 314.99 785.04 314.62 756.25 319.08"/><polygon class="cls-6" points="796.4 237.16 805.86 152.27 845.06 262.31 796.4 237.16"/><polygon class="cls-6" points="768.55 413.44 866.42 419.39 797.75 436.7 768.55 413.44"/><polygon class="cls-6" points="949.7 217.16 983.76 187.96 961.97 264.62 953.48 294.48 949.7 217.16"/><polygon class="cls-6" points="979.71 202.56 990.25 241.49 961.97 264.62 979.71 202.56"/><polygon class="cls-6" points="786.39 196.61 742.6 154.97 775.58 157.68 786.39 196.61"/><polygon class="cls-6" points="716.64 194.99 759.9 154.97 712.31 161.46 716.64 194.99"/><polygon class="cls-6" points="840.2 198.23 873.99 160.38 859.93 145.24 840.2 198.23"/><polygon class="cls-6" points="843.71 171.74 898.33 180.39 883.19 152.81 843.71 171.74"/><polygon class="cls-6" points="853.99 182.55 865.34 200.93 840.2 198.23 853.99 182.55"/><polygon class="cls-6" points="728.54 187.96 767.47 204.72 744.22 207.42 728.54 187.96"/><polygon class="cls-6" points="713.94 198.77 728.54 187.96 744.22 207.42 713.94 198.77"/><polygon class="cls-6" points="769.63 256.09 778.28 252.84 786.93 262.04 769.63 256.09"/><polygon class="cls-6" points="805.32 256.63 819.38 251.22 830.74 259.88 805.32 256.63"/><polygon class="cls-6" points="807.48 261.5 812.89 251.22 822.08 259.88 807.48 261.5"/><polygon class="cls-6" points="768.55 259.88 778.28 252.84 786.93 262.04 768.55 259.88"/><polygon class="cls-6" points="784.77 160.38 751.79 156.59 752.87 145.24 784.77 160.38"/><polygon class="cls-6" points="712.31 161.46 752.87 145.24 751.79 156.59 712.31 161.46"/><polygon class="cls-6" points="879.94 159.84 886.97 142.53 917.79 166.87 879.94 159.84"/><polygon class="cls-6" points="845.88 167.95 872.37 141.45 894 151.19 845.88 167.95"/><polygon class="cls-6" points="826.95 196.07 841.55 167.95 877.24 176.6 826.95 196.07"/><polygon class="cls-6" points="837.76 237.16 845.06 262.31 871.29 281.5 837.76 237.16"/><polygon class="cls-6" points="798.83 325.3 804.78 359.37 839.93 332.33 798.83 325.3"/><polygon class="cls-6" points="766.39 330.17 798.83 325.3 804.78 359.37 766.39 330.17"/><polygon class="cls-6" points="691.77 266.9 679.87 251.76 694.47 230.13 691.77 266.9"/><polygon class="cls-6" points="685.82 225.27 694.47 210.67 683.65 200.93 685.82 225.27"/><polygon class="cls-6" points="693.93 188.5 694.47 210.67 683.65 196.07 693.93 188.5"/><polygon class="cls-6" points="691.77 266.9 679.87 251.76 694.47 230.13 691.77 266.9"/><polygon class="cls-6" points="769.09 194.45 764.22 177.14 786.39 198.23 769.09 194.45"/><polygon class="cls-6" points="750.71 164.16 735.57 176.6 765.85 176.33 750.71 164.16"/><polygon class="cls-6" points="893.46 191.2 877.24 176.6 898.33 180.39 893.46 191.2"/><polygon class="cls-6" points="908.06 193.91 898.33 180.39 889.13 194.99 908.06 193.91"/><polygon class="cls-6" points="877.24 176.6 900.49 194.45 892.92 178.22 877.24 176.6"/><polygon class="cls-6" points="849.66 173.36 877.24 176.6 853.99 182.55 849.66 173.36"/><polygon class="cls-6" points="733.4 190.66 725.83 182.55 735.57 176.6 733.4 190.66"/><polygon class="cls-6" points="751.25 176.6 728.54 187.96 735.57 176.6 751.25 176.6"/><polygon class="cls-6" points="777.2 197.69 748 208.5 779.91 208.5 777.2 197.69"/><polygon class="cls-6" points="756.25 319.08 798.83 325.3 798.83 316.65 756.25 319.08"/><polygon class="cls-6" points="853.58 322.33 798.83 316.65 798.83 325.3 853.58 322.33"/><polygon class="cls-6" points="977.82 208.5 991.33 203.1 990.25 241.49 977.82 208.5"/><polygon class="cls-6" points="964.3 235 981.6 231.76 978.36 254.47 964.3 235"/><polygon class="cls-6" points="953.48 294.48 961.59 270.15 978.36 285.83 953.48 294.48"/><polygon class="cls-7" points="979.71 126.04 814.24 519.43 822.9 521.67 938.75 358.9 979.71 126.04"/><polygon class="cls-6" points="792.34 262.31 780.18 295.56 755.84 319.9 733.94 309.35 769.63 260.69 792.34 262.31"/><polyline class="cls-7" points="732.32 387.49 755.84 482.12 798.02 498.34 794.78 435.07 732.32 387.49"/><polygon class="cls-6" points="815.05 299.62 807.75 261.5 834.52 258.25 888.05 307.73 871.83 322.74 815.05 299.62"/><ellipse class="cls-1" cx="640.5" cy="536.71" rx="4.06" ry="4.46"/><ellipse class="cls-1" cx="749.7" cy="631.4" rx="2.84" ry="2.43"/><ellipse class="cls-1" cx="760.15" cy="651.01" rx="10.14" ry="10.95"/><ellipse class="cls-1" cx="647.15" cy="531.53" rx="3.24" ry="2.03"/><ellipse class="cls-1" cx="848.31" cy="512.13" rx="5.27" ry="5.68"/><ellipse class="cls-1" cx="847.5" cy="537.27" rx="1.62" ry="2.43"/><path class="cls-6" d="M0,601l736-96-53,97,518,24-1,155s-12.46-22.34-33.73-9.17c-10.46,6.47-24.66,12.28-24,32.23s15,62.38-10.31,53.94c-24-8-5.93-21.82-3.61-40.27C1132,789,1137,727,1085,728.66c-10.88.35-134,57.1-299,34.34-203-28-375.83,0-394.92,6.5s-32,40-26.08,69.5c1,5,5.16,20,5.16,20S372,872,361,872c-15.13,0-10.15-13.45-10.15-13.45,4.76-11.59,2.33-10.91,3.79-13.81C367.14,819.86,341.85,709.67,309,702,219,681-1,808-1,808Z"/><text class="cls-8" transform="matrix(0.99, -0.13, 0.13, 0.99, 98.48, 586.54)">USER F<tspan class="cls-9" x="220.06" y="0">O</tspan><tspan class="cls-10" x="266.94" y="0">CUSED</tspan></text><text class="cls-11" transform="matrix(0.99, -0.13, 0.13, 0.99, 296.59, 651.41)">PR<tspan class="cls-12" x="59.22" y="0">O</tspan><tspan class="cls-13" x="91.82" y="0">T</tspan><tspan class="cls-14" x="116.85" y="0">O</tspan><tspan x="149.45" y="0">TYPING</tspan></text><text class="cls-15" transform="matrix(0.13, 0.99, -0.99, 0.13, 309.93, 753.26)">INTER<tspan class="cls-16" x="102.7" y="0">A</tspan><tspan x="126.93" y="0">CTION</tspan></text><text class="cls-17" transform="matrix(0.13, 0.99, -0.99, 0.13, 350.88, 747.91)">HAND <tspan class="cls-18" x="102.82" y="0">C</tspan><tspan x="123.53" y="0">ODING</tspan></text><text class="cls-11" transform="matrix(0.99, -0.13, 0.13, 0.99, 566.15, 785.8)">RESPONSIVE</text><text class="cls-11" transform="matrix(0.13, 0.99, -0.99, 0.13, 372.35, 164.07)"><tspan class="cls-19">A</tspan><tspan class="cls-20" x="32.22" y="0">C</tspan><tspan x="60.78" y="0">CESSIBILITY</tspan></text><text class="cls-15" transform="matrix(0.13, 0.99, -0.99, 0.13, 389.3, 742.88)">PERFORMANCE</text><text class="cls-15" transform="matrix(0.99, -0.13, 0.13, 0.99, 290.33, 603.52)">STRUCTURED <tspan class="cls-16" x="241.68" y="0">D</tspan><tspan class="cls-21" x="267.15" y="0">AT</tspan><tspan x="306.82" y="0">A</tspan></text><text class="cls-17" transform="matrix(0.99, -0.13, 0.13, 0.99, 559.93, 738.28)">SPEED INDEX</text><text class="cls-11" transform="matrix(0.13, 0.99, -0.99, 0.13, 514.42, 726.85)">ANIM<tspan class="cls-22" x="117.65" y="0">A</tspan><tspan x="147.43" y="0">TION</tspan></text><text class="cls-15" transform="matrix(0.99, -0.13, 0.13, 0.99, 301.72, 690.61)"><tspan class="cls-23">C</tspan><tspan x="22.95" y="0">ONTENT FIRST</tspan></text><text class="cls-15" transform="matrix(0.99, -0.13, 0.13, 0.99, 571.66, 827.95)">INFORM<tspan class="cls-24" x="138.87" y="0">A</tspan><tspan x="161.39" y="0">TION</tspan><tspan x="0" y="30.29">ARCHITECTURE</tspan></text><text class="cls-11" transform="matrix(0.99, -0.13, 0.13, 0.99, 307.67, 736.07)">U<tspan class="cls-25" x="31.76" y="0">S</tspan><tspan x="59.27" y="0">ABILITY</tspan></text><text class="cls-11" transform="matrix(0.13, 0.99, -0.99, 0.13, 453.89, 153.07)">MODU<tspan class="cls-26" x="135.48" y="0">L</tspan><tspan x="159.67" y="0">AR</tspan><tspan x="0" y="35.33">DESIGN</tspan></text><text class="cls-17" transform="matrix(0.13, 0.99, -0.99, 0.13, 501.84, 149.34)"><tspan class="cls-27">D</tspan><tspan class="cls-28" x="23.83" y="0">AT</tspan><tspan x="57.51" y="0">A DRIVEN</tspan></text><text class="cls-15" transform="matrix(0.13, 0.99, -0.99, 0.13, 333.1, 168.87)">SEMANTICS</text><text class="cls-11" transform="matrix(0.99, -0.13, 0.13, 0.99, 86.26, 493.12)">PR<tspan class="cls-29" x="59.22" y="0">O</tspan><tspan class="cls-30" x="92.71" y="0">GRESSIVE</tspan><tspan x="0" y="35.33">ENH</tspan><tspan class="cls-19" x="94.6" y="35.33">A</tspan><tspan x="126.82" y="35.33">CEMENT</tspan></text><text class="cls-17" transform="matrix(0.13, 0.99, -0.99, 0.13, 476.26, 731.5)">WEB S<tspan class="cls-31" x="99" y="0">T</tspan><tspan class="cls-32" x="113.42" y="0">AN</tspan><tspan class="cls-27" x="158.69" y="0">D</tspan><tspan class="cls-32" x="182.53" y="0">ARDS</tspan></text><text class="cls-17" transform="matrix(0.99, -0.13, 0.13, 0.99, 80.74, 450.96)">MOBILE FIRST</text><text class="cls-11" transform="matrix(0.13, 0.99, -0.99, 0.13, 429.66, 737.6)">TYP<tspan class="cls-33" x="84.67" y="0">O</tspan><tspan x="118.15" y="0">GRAPHY</tspan></text></svg>