<svg xmlns="http://www.w3.org/2000/svg" viewBox="0 0 800 493.7" height="800" width="493.7"><style type="text/css"> .st0{fill:#3F3F3F;} .st1{fill:#37973C;} .st2{fill:#5E9F37;} .st3{fill:#F47631;} .st4{fill:#F16030;} .st5{fill:#EF412F;} .st6{fill:#FAA432;} .st7{fill:#F78D32;} .st8{fill:#F47D31;} .st9{fill:#FCB132;} .st10{fill:#E9E611;} .st11{fill:#B5C223;} .st12{fill:#BFD730;} .st13{fill:#FFFFFF;fill-opacity:0;} .st14{opacity:0.8;fill:#FFFFFF;enable-background:new ;} .st15{opacity:0.6;fill:#FFFFFF;enable-background:new ;} .st16{fill:#DDEBC1;} .st17{opacity:0.4;fill:#FFFFFF;enable-background:new ;} </style><title> Asset 6</title><path class="st0" d="M566.6 244.2l12.7-49.4H350.8l-26-34.6L298.3 180 287 207.2l-20.8-40.3 -40.4-13.6 -6.8 36.5 7.2 40.2 30.6 62.6 33.6 23.7 22.3-23.6H581L566.6 244.2zM368.4 219.4h-18.1v17.8h17v12.9h-17v18.1h18.1v13.6h-34.5v-75.7h34.5V219.4zM421.5 230.3c0 6.2-2.2 10.2-6.7 11.9 3.9 1.4 5.8 4.6 5.8 9.6v29.9h-16.4v-28.6c0-1.6-0.7-2.3-2.2-2.3h-7.8v31h-16.4v-75.7H407c9.7 0 14.5 5.1 14.5 15.4V230.3zM468.7 220h-12.3v61.8H440V220h-12.3v-13.9h40.9L468.7 220zM510.7 219.4h-18.1v17.8h17v12.9h-17v18.1h18.1v13.6h-34.5v-75.7h34.5V219.4zM540.5 255.4l-8 26.4h-17.2l13.6-37.9L517 206.1h16l7.5 24.4 7.5-24.4h16l-12.1 37.8 13.6 37.9h-17.1L540.5 255.4z"/><path class="st0" d="M402.9 217.2h-8.7v22.1h8.7c0.6 0 1.2-0.2 1.6-0.7 0.4-0.4 0.7-1 0.6-1.6v-17.4c0-0.6-0.2-1.2-0.6-1.6C404.1 217.5 403.5 217.2 402.9 217.2z"/><path class="st0" d="M341 306.8c0.9 0.3 1.4 1.1 1.4 2.3v2.5c0 1.9-0.9 2.9-2.7 2.9h-5.6v-14.1h5.4c1.8 0 2.7 1 2.7 2.9v1.3C342.3 305.7 341.8 306.5 341 306.8zM338.8 302.5h-1.6v3.8h1.6c0.1 0 0.2 0 0.3-0.1 0.1-0.1 0.1-0.2 0.1-0.3V303c0-0.1 0-0.2-0.1-0.3C339 302.5 338.9 302.5 338.8 302.5zM339.4 312v-3.2c0-0.1 0-0.2-0.1-0.3 -0.1-0.1-0.2-0.1-0.3-0.1h-1.8v4h1.8c0.1 0 0.2 0 0.3-0.1C339.3 312.2 339.4 312.1 339.4 312z"/><path class="st0" d="M352.8 303.1v8.8c0 1.9-0.9 2.9-2.7 2.9h-2.9c-1.8 0-2.7-1-2.7-2.9v-8.8c0-1.9 0.9-2.9 2.7-2.9h2.9C351.9 300.2 352.8 301.2 352.8 303.1zM349.8 312.2v-9.5c0-0.1 0-0.2-0.1-0.3 -0.1-0.1-0.2-0.1-0.3-0.1H348c-0.1 0-0.2 0-0.3 0.1 -0.1 0.1-0.1 0.2-0.1 0.3v9.5c0 0.1 0 0.2 0.1 0.3 0.1 0.1 0.2 0.1 0.3 0.1h1.4c0.1 0 0.2 0 0.3-0.1C349.7 312.4 349.8 312.3 349.8 312.2z"/><path class="st0" d="M360.1 300.4h3v11.4c0 1.9-0.9 2.9-2.7 2.9h-2.7c-1.8 0-2.7-1-2.7-2.9v-11.4h3v11.7c0 0.1 0 0.2 0.1 0.3 0.1 0.1 0.2 0.1 0.3 0.1h1.2c0.1 0 0.2 0 0.3-0.1 0.1-0.1 0.1-0.2 0.1-0.3v-11.7H360.1z"/><path class="st0" d="M368.3 311.9h3.3v2.6h-6.4v-14.1h3v11.5H368.3z"/><path class="st0" d="M378.6 300.4c1.8 0 2.7 1 2.7 2.9v8.3c0 1.9-0.9 2.9-2.7 2.9H373v-14.1L378.6 300.4 378.6 300.4zM378.3 312v-9.1c0-0.1 0-0.2-0.1-0.3 -0.1-0.1-0.2-0.1-0.3-0.1h-1.8v9.9h1.8c0.1 0 0.2 0 0.3-0.1C378.2 312.2 378.3 312.1 378.3 312z"/><path class="st0" d="M386.6 312h3.4v2.5h-6.4v-14.1h6.4v2.5h-3.4v3.3h3.2v2.4h-3.2V312z"/><path class="st0" d="M394.8 308.7v5.8h-3v-14.1h5.4c1.8 0 2.7 1 2.7 2.9v1.6c0 1.2-0.4 1.9-1.2 2.2 0.7 0.3 1.1 0.9 1.1 1.8v5.6h-3v-5.3c0-0.3-0.1-0.4-0.4-0.4h-1.6V308.7zM394.8 302.5v4.1h1.6c0.1 0 0.2 0 0.3-0.1 0.1-0.1 0.1-0.2 0.1-0.3V303c0-0.1 0-0.2-0.1-0.3 -0.1-0.1-0.2-0.1-0.3-0.1h-1.6V302.5z"/><path class="st0" d="M404.9 300.4v14.1h-3v-14.1H404.9z"/><path class="st0" d="M415.2 314.5h-3v-11.7c0-0.1 0-0.2-0.1-0.3 -0.1-0.1-0.2-0.1-0.3-0.1h-1.2c-0.1 0-0.2 0-0.3 0.1 -0.1 0.1-0.1 0.2-0.1 0.3v11.7h-3v-11.4c0-1.9 0.9-2.9 2.7-2.9h2.7c1.8 0 2.7 1 2.7 2.9v11.4H415.2z"/><path class="st0" d="M421.4 308.9v-2.2h4v5.2c0 1.9-0.9 2.9-2.7 2.9H420c-1.8 0-2.7-1-2.7-2.9v-8.8c0-1.9 0.9-2.9 2.7-2.9h2.7c1.8 0 2.7 1 2.7 2.9v1.3h-2.9v-1.7c0-0.1 0-0.2-0.1-0.3 -0.1-0.1-0.2-0.1-0.3-0.1h-1.4c-0.1 0-0.2 0-0.3 0.1 -0.1 0.1-0.1 0.2-0.1 0.3v9.5c0 0.1 0 0.2 0.1 0.3 0.1 0.1 0.2 0.1 0.3 0.1h1.4c0.1 0 0.2 0 0.3-0.1 0.1-0.1 0.1-0.2 0.1-0.3v-3.3H421.4z"/><path class="st0" d="M435.6 308.9v-2.2h4v5.2c0 1.9-0.9 2.9-2.7 2.9h-2.7c-1.8 0-2.7-1-2.7-2.9v-8.8c0-1.9 0.9-2.9 2.7-2.9h2.7c1.8 0 2.7 1 2.7 2.9v1.3h-2.9v-1.7c0-0.1 0-0.2-0.1-0.3 -0.1-0.1-0.2-0.1-0.3-0.1h-1.4c-0.1 0-0.2 0-0.3 0.1 -0.1 0.1-0.1 0.2-0.1 0.3v9.5c0 0.1 0 0.2 0.1 0.3 0.1 0.1 0.2 0.1 0.3 0.1h1.4c0.1 0 0.2 0 0.3-0.1 0.1-0.1 0.1-0.2 0.1-0.3v-3.3H435.6z"/><path class="st0" d="M449.4 300.4l-3 8.9v5.1h-3v-5.1l-3-8.9h2.9l1.7 5.9 1.7-5.9H449.4z"/><path class="st0" d="M453.8 314.5h-3v-11.4c0-1.9 0.9-2.9 2.7-2.9h1.6c1.1 0 1.8 0.3 2.3 1 0.4-0.7 1.2-1 2.3-1h1.6c1.8 0 2.7 1 2.7 2.9v11.4h-3v-11.7c0-0.1 0-0.2-0.1-0.3 -0.1-0.1-0.2-0.1-0.3-0.1h-1.2c-0.1 0-0.2 0-0.3 0.1 -0.1 0.1-0.1 0.2-0.1 0.3v11.7h-3v-11.7c0-0.1 0-0.2-0.1-0.3 -0.1-0.1-0.2-0.1-0.3-0.1h-1.2c-0.1 0-0.2 0-0.3 0.1 -0.1 0.1-0.1 0.2-0.1 0.3v11.7H453.8z"/><polygon class="st1" points="318 219.5 297.6 275 286 261.6 291.7 225.8 "/><polygon class="st2" points="291.7 225.8 305.3 195 323.6 178.3 318 219.5 "/><polygon class="st3" points="238.3 227.1 231.4 190.8 234.3 169.2 248.6 218.6 "/><polygon class="st4" points="248.6 218.6 269.2 274.1 265.8 283.6 238.3 227.1 "/><polygon class="st5" points="269.2 274.1 288.8 299.3 265.8 283.6 "/><polygon class="st6" points="267 215.3 256 176.5 234.3 169.2 248.6 218.6 "/><polygon class="st7" points="277.3 267.6 267 215.3 248.6 218.6 269.2 274.1 "/><polygon class="st8" points="269.2 274.1 288.8 299.3 277.3 267.6 "/><polygon class="st9" points="286.1 261.9 277.2 216.2 258.8 177.4 256 176.5 266.7 215.4 277.3 267.6 "/><polygon class="st10" points="297.6 275 286 261.6 277.3 267.6 "/><polygon class="st11" points="277.3 267.6 288.8 299.3 297.6 275 "/><polygon class="st12" points="339.6 201.3 331.9 230.9 308.4 275 288.8 299.3 297.6 275 318 219.5 323.6 178.3 "/><polygon class="st13" points="248.5 218.2 244.6 204.9 264.3 207 266.9 217.2 "/><polygon class="st14" points="263.9 205 277.2 216.1 266.7 215.4 "/><polygon class="st15" points="277.2 216.2 279.9 229.4 269.8 230.2 266.7 215.3 "/><polygon class="st16" points="331.9 230.9 318 219.5 319.6 207.9 "/><polygon class="st17" points="318 219.5 314.6 228.9 327.8 238.7 331.9 230.9 "/></svg>