<?xml version="1.0" encoding="utf-8"?>
<!-- Generator: Adobe Illustrator 21.1.0, SVG Export Plug-In . SVG Version: 6.00 Build 0)  -->
<svg version="1.1" id="Layer_1" xmlns="http://www.w3.org/2000/svg" xmlns:xlink="http://www.w3.org/1999/xlink" x="0px" y="0px"
	 viewBox="0 0 800 493.7" style="enable-background:new 0 0 800 493.7;" xml:space="preserve">
<style type="text/css">
	.st0{fill:#3F3F3F;}
	.st1{fill:#37973C;}
	.st2{fill:#5E9F37;}
	.st3{fill:#F47631;}
	.st4{fill:#F16030;}
	.st5{fill:#EF412F;}
	.st6{fill:#FAA432;}
	.st7{fill:#F78D32;}
	.st8{fill:#F47D31;}
	.st9{fill:#FCB132;}
	.st10{fill:#E9E611;}
	.st11{fill:#B5C223;}
	.st12{fill:#BFD730;}
	.st13{fill:#FFFFFF;fill-opacity:0;}
	.st14{opacity:0.8;fill:#FFFFFF;enable-background:new    ;}
	.st15{opacity:0.6;fill:#FFFFFF;enable-background:new    ;}
	.st16{fill:#DDEBC1;}
	.st17{opacity:0.4;fill:#FFFFFF;enable-background:new    ;}
</style>
<title>Asset 6</title>
<g id="Layer_2">
	<g id="Layer_1-2">
		<path class="st0" d="M563.6,244.2l12.7-49.4H342.8l-20-28.6L298.3,188L286,219.2l-22.8-48.3l-33.4-11.6l-7.8,32.5l7.2,38.2
			l27.6,61.6l32.6,19.7l17.3-18.6l271.3,0L563.6,244.2z M367.4,219.4h-18.1v17.8h17v12.9h-17v18.1h18.1v13.6h-34.5v-75.7h34.5V219.4
			z M420.5,230.3c0,6.2-2.2,10.2-6.7,11.9c3.9,1.4,5.8,4.6,5.8,9.6v29.9h-16.4v-28.6c0-1.6-0.7-2.3-2.2-2.3h-7.8v31h-16.4v-75.7H406
			c9.7,0,14.5,5.1,14.5,15.4V230.3z M467.7,220h-12.3v61.8H439V220h-12.3v-13.9h40.9L467.7,220z M509.7,219.4h-18.1v17.8h17v12.9
			h-17v18.1h18.1v13.6h-34.5v-75.7h34.5L509.7,219.4z M539.5,255.4l-8,26.4h-17.2l13.6-37.9l-11.9-37.8H532l7.5,24.4l7.5-24.4h16
			l-12.1,37.8l13.6,37.9h-17.1L539.5,255.4z"/>
		<path class="st0" d="M401.9,217.2h-8.7v22.1h8.7c0.6,0,1.2-0.2,1.6-0.7c0.4-0.4,0.7-1,0.6-1.6v-17.4c0-0.6-0.2-1.2-0.6-1.6
			C403.1,217.5,402.5,217.2,401.9,217.2z"/>
		<g>
			<path class="st0" d="M340,306.8c0.9,0.3,1.4,1.1,1.4,2.3v2.5c0,1.9-0.9,2.9-2.7,2.9h-5.6v-14.1h5.4c1.8,0,2.7,1,2.7,2.9v1.3
				C341.3,305.7,340.8,306.5,340,306.8z M337.8,302.5h-1.6v3.8h1.6c0.1,0,0.2,0,0.3-0.1c0.1-0.1,0.1-0.2,0.1-0.3v-2.9
				c0-0.1,0-0.2-0.1-0.3C338,302.5,337.9,302.5,337.8,302.5z M338.4,312v-3.2c0-0.1,0-0.2-0.1-0.3c-0.1-0.1-0.2-0.1-0.3-0.1h-1.8v4
				h1.8c0.1,0,0.2,0,0.3-0.1C338.3,312.2,338.4,312.1,338.4,312z"/>
			<path class="st0" d="M351.8,303.1v8.8c0,1.9-0.9,2.9-2.7,2.9h-2.9c-1.8,0-2.7-1-2.7-2.9v-8.8c0-1.9,0.9-2.9,2.7-2.9h2.9
				C350.9,300.2,351.8,301.2,351.8,303.1z M348.8,312.2v-9.5c0-0.1,0-0.2-0.1-0.3c-0.1-0.1-0.2-0.1-0.3-0.1H347
				c-0.1,0-0.2,0-0.3,0.1c-0.1,0.1-0.1,0.2-0.1,0.3v9.5c0,0.1,0,0.2,0.1,0.3c0.1,0.1,0.2,0.1,0.3,0.1h1.4c0.1,0,0.2,0,0.3-0.1
				C348.7,312.4,348.8,312.3,348.8,312.2z"/>
			<path class="st0" d="M359.1,300.4h3v11.4c0,1.9-0.9,2.9-2.7,2.9h-2.7c-1.8,0-2.7-1-2.7-2.9v-11.4h3v11.7c0,0.1,0,0.2,0.1,0.3
				c0.1,0.1,0.2,0.1,0.3,0.1h1.2c0.1,0,0.2,0,0.3-0.1c0.1-0.1,0.1-0.2,0.1-0.3V300.4z"/>
			<path class="st0" d="M367.3,311.9h3.3v2.6h-6.4v-14.1h3V311.9z"/>
			<path class="st0" d="M377.6,300.4c1.8,0,2.7,1,2.7,2.9v8.3c0,1.9-0.9,2.9-2.7,2.9H372v-14.1H377.6z M377.3,312v-9.1
				c0-0.1,0-0.2-0.1-0.3c-0.1-0.1-0.2-0.1-0.3-0.1h-1.8v9.9h1.8c0.1,0,0.2,0,0.3-0.1C377.2,312.2,377.3,312.1,377.3,312z"/>
			<path class="st0" d="M385.6,312h3.4v2.5h-6.4v-14.1h6.4v2.5h-3.4v3.3h3.2v2.4h-3.2V312z"/>
			<path class="st0" d="M393.8,308.7v5.8h-3v-14.1h5.4c1.8,0,2.7,1,2.7,2.9v1.6c0,1.2-0.4,1.9-1.2,2.2c0.7,0.3,1.1,0.9,1.1,1.8v5.6
				h-3v-5.3c0-0.3-0.1-0.4-0.4-0.4H393.8z M393.8,302.5v4.1h1.6c0.1,0,0.2,0,0.3-0.1c0.1-0.1,0.1-0.2,0.1-0.3v-3.2
				c0-0.1,0-0.2-0.1-0.3c-0.1-0.1-0.2-0.1-0.3-0.1H393.8z"/>
			<path class="st0" d="M403.9,300.4v14.1h-3v-14.1H403.9z"/>
			<path class="st0" d="M414.2,314.5h-3v-11.7c0-0.1,0-0.2-0.1-0.3c-0.1-0.1-0.2-0.1-0.3-0.1h-1.2c-0.1,0-0.2,0-0.3,0.1
				c-0.1,0.1-0.1,0.2-0.1,0.3v11.7h-3v-11.4c0-1.9,0.9-2.9,2.7-2.9h2.7c1.8,0,2.7,1,2.7,2.9V314.5z"/>
			<path class="st0" d="M420.4,308.9v-2.2h4v5.2c0,1.9-0.9,2.9-2.7,2.9H419c-1.8,0-2.7-1-2.7-2.9v-8.8c0-1.9,0.9-2.9,2.7-2.9h2.7
				c1.8,0,2.7,1,2.7,2.9v1.3h-2.9v-1.7c0-0.1,0-0.2-0.1-0.3c-0.1-0.1-0.2-0.1-0.3-0.1h-1.4c-0.1,0-0.2,0-0.3,0.1
				c-0.1,0.1-0.1,0.2-0.1,0.3v9.5c0,0.1,0,0.2,0.1,0.3c0.1,0.1,0.2,0.1,0.3,0.1h1.4c0.1,0,0.2,0,0.3-0.1c0.1-0.1,0.1-0.2,0.1-0.3
				v-3.3H420.4z"/>
			<path class="st0" d="M434.6,308.9v-2.2h4v5.2c0,1.9-0.9,2.9-2.7,2.9h-2.7c-1.8,0-2.7-1-2.7-2.9v-8.8c0-1.9,0.9-2.9,2.7-2.9h2.7
				c1.8,0,2.7,1,2.7,2.9v1.3h-2.9v-1.7c0-0.1,0-0.2-0.1-0.3c-0.1-0.1-0.2-0.1-0.3-0.1h-1.4c-0.1,0-0.2,0-0.3,0.1
				c-0.1,0.1-0.1,0.2-0.1,0.3v9.5c0,0.1,0,0.2,0.1,0.3c0.1,0.1,0.2,0.1,0.3,0.1h1.4c0.1,0,0.2,0,0.3-0.1c0.1-0.1,0.1-0.2,0.1-0.3
				v-3.3H434.6z"/>
			<path class="st0" d="M448.4,300.4l-3,8.9v5.1h-3v-5.1l-3-8.9h2.9l1.7,5.9l1.7-5.9H448.4z"/>
			<path class="st0" d="M452.8,314.5h-3v-11.4c0-1.9,0.9-2.9,2.7-2.9h1.6c1.1,0,1.8,0.3,2.3,1c0.4-0.7,1.2-1,2.3-1h1.6
				c1.8,0,2.7,1,2.7,2.9v11.4h-3v-11.7c0-0.1,0-0.2-0.1-0.3c-0.1-0.1-0.2-0.1-0.3-0.1h-1.2c-0.1,0-0.2,0-0.3,0.1
				c-0.1,0.1-0.1,0.2-0.1,0.3v11.7h-3v-11.7c0-0.1,0-0.2-0.1-0.3c-0.1-0.1-0.2-0.1-0.3-0.1h-1.2c-0.1,0-0.2,0-0.3,0.1
				c-0.1,0.1-0.1,0.2-0.1,0.3V314.5z"/>
		</g>
		<polygon class="st1" points="317,219.5 296.6,275 285,261.6 290.7,225.8 		"/>
		<polygon class="st2" points="290.7,225.8 304.3,195 322.6,178.3 317,219.5 		"/>
		<polygon class="st3" points="237.3,227.1 230.4,190.8 233.3,169.2 247.6,218.6 		"/>
		<polygon class="st4" points="247.6,218.6 268.2,274.1 264.8,283.6 237.3,227.1 		"/>
		<polygon class="st5" points="268.2,274.1 287.8,299.3 264.8,283.6 		"/>
		<polygon class="st6" points="266,215.3 255,176.5 233.3,169.2 247.6,218.6 		"/>
		<polygon class="st7" points="276.3,267.6 266,215.3 247.6,218.6 268.2,274.1 		"/>
		<polygon class="st8" points="268.2,274.1 287.8,299.3 276.3,267.6 		"/>
		<polygon class="st9" points="285.1,261.9 276.2,216.2 257.8,177.4 255,176.5 265.7,215.4 276.3,267.6 		"/>
		<polygon class="st10" points="296.6,275 285,261.6 276.3,267.6 		"/>
		<polygon class="st11" points="276.3,267.6 287.8,299.3 296.6,275 		"/>
		<polygon class="st12" points="338.6,201.3 330.9,230.9 307.4,275 287.8,299.3 296.6,275 317,219.5 322.6,178.3 		"/>
		<polygon class="st13" points="247.5,218.2 243.6,204.9 263.3,207 265.9,217.2 		"/>
		<polygon class="st14" points="262.9,205 276.2,216.1 265.7,215.4 		"/>
		<polygon class="st15" points="276.2,216.2 278.9,229.4 268.8,230.2 265.7,215.3 		"/>
		<polygon class="st16" points="330.9,230.9 317,219.5 318.6,207.9 		"/>
		<polygon class="st17" points="317,219.5 313.6,228.9 326.8,238.7 330.9,230.9 		"/>
	</g>
</g>
</svg>
