<svg id="Layer_1" data-name="Layer 1" xmlns="http://www.w3.org/2000/svg" viewBox="0 0 1000 400"><defs><style>.cls-1{fill:#5e5e5e;}.cls-16,.cls-17,.cls-19,.cls-2{isolation:isolate;}.cls-2{font-size:32px;font-family:SquadaOne-Regular, Squada One;}.cls-15,.cls-16,.cls-17,.cls-19,.cls-2{fill:#fff;}.cls-3{fill:#37973c;}.cls-4{fill:#5e9f37;}.cls-5{fill:#f47631;}.cls-6{fill:#f16030;}.cls-7{fill:#ef412f;}.cls-8{fill:#faa432;}.cls-9{fill:#f78d32;}.cls-10{fill:#f47d31;}.cls-11{fill:#fcb132;}.cls-12{fill:#e9e611;}.cls-13{fill:#b5c223;}.cls-14{fill:#bfd730;}.cls-15{fill-opacity:0;}.cls-16{opacity:0.8;}.cls-17{opacity:0.6;}.cls-18{fill:#ddebc1;}.cls-19{opacity:0.4;}</style></defs><title>Artboard 1</title><g id="Layer_2" data-name="Layer 2"><g id="Layer_1-2" data-name="Layer 1-2"><path class="cls-1" d="M740.51,207.54l18.64-72.66H415.94l-29.43-42-36,32-18.17,45.91-33.52-71-49.13-17-11.54,47.74,10.57,56.12,40.63,90.59,48,29,25.5-27.31,399,0ZM452.08,171.18H425.43v26.14h24.94v18.92H425.43V242.9h26.66v20H401.35V151.57h50.74Zm78.09,16q0,13.76-9.8,17.54,8.6,3.1,8.6,14.1v44H504.89V220.71q0-3.44-3.27-3.44H490.1v45.58H466V151.57h42.83q21.33,0,21.33,22.7ZM599.49,172H581.42v90.82H557.35V172H539.29V151.57h60.2Zm61.75-.86H634.58v26.14h24.94V216.2H634.58v26.7h26.66v20H610.49V151.57h50.74ZM705.15,224l-11.7,38.87h-25.3l20-55.73-17.47-55.55h23.39l11,36,11-36h23.56l-17.72,55.56,20,55.73H716.79Z"/><path class="cls-1" d="M502.83,167.91H490.1v32.51h12.73a3,3,0,0,0,2.32-1,3.46,3.46,0,0,0,1-2.41V171.35a3.47,3.47,0,0,0-1-2.41A3,3,0,0,0,502.83,167.91Z"/><text class="cls-2" transform="translate(400.07 310.95)">BOULDERING GYM</text><polygon class="cls-3" points="378 171.25 347.9 252.82 330.94 233.24 339.35 180.56 378 171.25"/><polygon class="cls-4" points="339.35 180.56 359.31 135.27 386.12 110.62 378 171.25 339.35 180.56"/><polygon class="cls-5" points="260.76 182.49 250.54 129 254.93 97.31 275.88 169.89 260.76 182.49"/><polygon class="cls-6" points="275.88 169.89 306.14 251.57 301.14 265.57 260.76 182.49 275.88 169.89"/><polygon class="cls-7" points="306.14 251.57 335.02 288.63 301.14 265.57 306.14 251.57"/><polygon class="cls-8" points="302.9 165.05 286.85 108.06 254.93 97.31 275.88 169.89 302.9 165.05"/><polygon class="cls-9" points="318.11 241.95 302.9 165.05 275.88 169.89 306.14 251.57 318.11 241.95"/><polygon class="cls-10" points="306.14 251.57 335.02 288.63 318.11 241.95 306.14 251.57"/><polygon class="cls-11" points="331.01 233.57 317.98 166.37 290.82 109.4 286.85 108.06 302.51 165.19 318.11 241.95 331.01 233.57"/><polygon class="cls-12" points="347.9 252.82 330.95 233.24 318.11 241.95 347.9 252.82"/><polygon class="cls-13" points="318.11 241.95 335.02 288.63 347.9 252.82 318.11 241.95"/><polygon class="cls-14" points="409.73 144.52 398.44 188 363.82 252.9 335.02 288.63 347.9 252.82 378 171.25 386.12 110.62 409.73 144.52"/><polygon class="cls-15" points="275.7 169.4 269.98 149.75 298.98 152.81 302.85 167.81 275.7 169.4"/><polygon class="cls-16" points="298.35 149.94 317.89 166.31 302.5 165.17 298.35 149.94"/><polygon class="cls-17" points="317.94 166.35 321.94 185.81 307.01 186.99 302.51 165.12 317.94 166.35"/><polygon class="cls-18" points="398.44 188 378 171.25 380.29 154.17 398.44 188"/><polygon class="cls-19" points="378 171.25 372.94 185 392.35 199.42 398.44 188 378 171.25"/></g></g></svg>