<svg xmlns="http://www.w3.org/2000/svg" viewBox="0 0 600 900" height="600" width="900"><style type="text/css">  
	.st0{fill:#414042;}
	.st1{fill:none;}
	.st2{fill:#6D6E71;}
	.st3{fill:#FFFFFF;}
	.st4{fill:#58595B;}
	.st5{fill:#E6E7E8;}
</style><path d="M166.6 148.7v-42c0-1 0.5-1.8 1.5-2.3 1-0.5 2.2-0.8 3.6-0.8 1.4 0 2.6 0.3 3.6 0.8 1 0.5 1.5 1.3 1.5 2.3v42c0 1-0.5 1.8-1.5 2.3 -1 0.6-2.2 0.8-3.6 0.8 -1.4 0-2.6-0.3-3.6-0.8C167.1 150.5 166.6 149.7 166.6 148.7z"/><path d="M183.4 148.7v-25.1c0-0.9 0.5-1.7 1.4-2.2 0.9-0.6 2.2-0.9 3.7-0.9 1.2 0 2.3 0.3 3.2 0.9 0.9 0.6 1.3 1.3 1.3 2.3v1.5c0.7-1.4 1.8-2.6 3.4-3.6 1.6-1 3.4-1.5 5.4-1.5 3 0 5.7 1.4 7.9 4.1 2.2 2.7 3.3 6 3.3 9.8v14.8c0 1-0.5 1.8-1.5 2.3 -1 0.6-2.2 0.8-3.6 0.8 -1.3 0-2.5-0.3-3.5-0.9 -1-0.6-1.6-1.3-1.6-2.3V134c0-1.3-0.5-2.4-1.4-3.4 -0.9-1-2.1-1.5-3.3-1.5 -1.1 0-2.2 0.4-3.1 1.3 -0.9 0.9-1.4 2.1-1.4 3.6v14.7c0 0.8-0.5 1.5-1.6 2.2 -1 0.7-2.2 1-3.6 1 -1.5 0-2.7-0.3-3.6-1C183.9 150.3 183.4 149.6 183.4 148.7z"/><path d="M218.5 140.9v-30.4c0-0.9 0.5-1.6 1.6-2.2 1.1-0.6 2.2-0.9 3.5-0.9 1.4 0 2.6 0.3 3.6 0.8 1 0.6 1.6 1.3 1.6 2.1v10h7.5c0.8 0 1.4 0.4 1.8 1.2 0.4 0.8 0.7 1.7 0.7 2.8 0 1.1-0.2 2-0.7 2.8 -0.4 0.8-1.1 1.2-1.8 1.2h-7.5v12.1c0 0.9 0.2 1.5 0.6 1.9 0.4 0.3 1.1 0.5 2.1 0.5h2.8c1.4 0 2.5 0.4 3.2 1.3 0.7 0.9 1.1 1.9 1.1 3.1 0 1.2-0.4 2.3-1.1 3.2 -0.7 0.9-1.8 1.3-3.2 1.3h-2.8C222.8 151.9 218.5 148.2 218.5 140.9z"/><path d="M241.1 138.6v-4.8c0-3.7 1.5-7 4.5-9.6 3-2.7 6.5-4 10.7-4 3.9 0 7.3 1.2 10 3.5 2.8 2.4 4.2 5.4 4.2 9 0 1.4-0.2 2.5-0.5 3.4 -0.4 0.9-0.9 1.5-1.6 1.8 -0.7 0.4-1.4 0.6-1.9 0.7 -0.6 0.1-1.4 0.2-2.3 0.2h-12.7v0.4c0 1.6 0.6 3 1.8 4 1.2 1 2.9 1.5 4.9 1.5 1.5 0 3.2-0.4 4.9-1.3 1.7-0.8 2.8-1.3 3.4-1.3 1.1 0 2 0.5 2.7 1.6 0.7 1 1.1 2 1.1 2.9 0 1.4-1.2 2.7-3.5 4 -2.4 1.3-5.3 1.9-8.7 1.9 -4.9 0-8.9-1.3-12-3.9C242.7 146.1 241.1 142.7 241.1 138.6zM251.4 133h8.2c0.9 0 1.4-0.5 1.4-1.4 0-1.1-0.5-2-1.4-2.6 -0.9-0.6-2.1-1-3.4-1 -1.3 0-2.4 0.3-3.3 1 -0.9 0.6-1.4 1.5-1.4 2.6V133z"/><path d="M293.9 166.6c0-2.9 1.5-5.2 4.4-6.9 -1.6-0.9-2.4-2.3-2.4-4.1 0-1.9 1.1-3.7 3.4-5.3 -2.9-2.1-4.3-4.9-4.3-8.4v-1c0-3.2 1.2-5.8 3.7-7.9 2.5-2 5.8-3 9.8-3 2.8 0 5.3 0.5 7.5 1.6 0.7-1.8 1.4-3 2-3.7 0.6-0.6 1.2-1 1.8-1 1.1 0 2.1 0.3 2.8 1 0.7 0.7 1.1 1.4 1.1 2 0 0.7-0.4 1.4-1.1 2l-1.3 1.1c-0.7 0.5-1.2 1-1.5 1.3 1.7 1.8 2.5 4 2.5 6.5v1c0 3.2-1.3 5.8-3.9 7.9 -2.6 2.1-5.9 3.1-9.9 3.1 -1.5 0-2.8-0.1-4-0.4 -0.2 0.3-0.3 0.6-0.3 0.9 0 0.6 0.7 1.1 2 1.4 1.3 0.3 3 0.6 4.9 0.9 1.9 0.3 3.8 0.6 5.7 1.2 1.9 0.5 3.5 1.5 4.9 2.9 1.3 1.5 2 3.3 2 5.7 0 3.6-1.5 6.3-4.4 8.1 -2.9 1.8-6.4 2.7-10.6 2.7 -4.1 0-7.7-0.9-10.6-2.6C295.4 171.9 293.9 169.6 293.9 166.6zM303.5 165.6c0 1.3 0.5 2.3 1.6 3 1 0.7 2.3 1.1 3.7 1.1 1.4 0 2.6-0.4 3.7-1.1 1-0.7 1.6-1.7 1.6-2.9 0-0.7-0.2-1.4-0.6-1.8 -0.4-0.5-1-0.9-1.8-1.2 -0.8-0.3-1.6-0.5-2.4-0.7 -0.8-0.2-1.8-0.3-3-0.4C304.4 162.5 303.5 163.9 303.5 165.6zM304.9 141.9c0 1.5 0.3 2.7 1 3.7 0.7 1 1.6 1.5 2.8 1.5 1.1 0 2-0.5 2.7-1.4 0.7-0.9 1-2.2 1-3.7v-1c0-1.4-0.3-2.6-1-3.5 -0.7-0.9-1.6-1.4-2.8-1.4 -1.1 0-2 0.5-2.7 1.4 -0.7 0.9-1 2.1-1 3.5V141.9z"/><path d="M347.8 143.4c0-3.5 1.3-6 4-7.4 2.7-1.4 6.5-2.2 11.5-2.2h2.4v-0.7c0-1.4-0.4-2.6-1.2-3.6 -0.8-1-2-1.5-3.8-1.5 -2.1 0-3.9 0.4-5.2 1.2 -1.4 0.8-2.2 1.2-2.5 1.2 -1.1 0-1.9-0.5-2.5-1.6 -0.6-1-0.9-2.2-0.9-3.5 0-1.5 1.2-2.7 3.7-3.7 2.4-1 5-1.6 7.6-1.6 5.1 0 8.8 1.2 11.3 3.7 2.5 2.5 3.7 5.5 3.7 9.2v15.7c0 0.9-0.5 1.6-1.4 2.2 -0.9 0.6-2.1 0.9-3.6 0.9 -1.3 0-2.4-0.3-3.2-1 -0.9-0.7-1.3-1.5-1.3-2.4v-1.6c-3 3.7-6.4 5.6-10 5.6 -2.4 0-4.4-0.8-6-2.3C348.6 148.6 347.8 146.4 347.8 143.4zM358.1 142.1c0 1.7 0.9 2.6 2.6 2.6 1.1 0 2.2-0.6 3.3-1.7 1.1-1.1 1.6-2.4 1.6-3.9v-0.2h-0.3c-1.5 0-2.7 0.1-3.6 0.2 -0.9 0.1-1.8 0.4-2.5 0.9C358.5 140.4 358.1 141.1 358.1 142.1z"/><path d="M381.4 140.9v-30.4c0-0.9 0.5-1.6 1.6-2.2 1.1-0.6 2.2-0.9 3.5-0.9 1.4 0 2.6 0.3 3.6 0.8s1.6 1.3 1.6 2.1v10h7.5c0.8 0 1.4 0.4 1.8 1.2 0.4 0.8 0.7 1.7 0.7 2.8 0 1.1-0.2 2-0.7 2.8 -0.4 0.8-1.1 1.2-1.8 1.2h-7.5v12.1c0 0.9 0.2 1.5 0.6 1.9 0.4 0.3 1.1 0.5 2.1 0.5h2.8c1.4 0 2.5 0.4 3.2 1.3 0.7 0.9 1.1 1.9 1.1 3.1 0 1.2-0.4 2.3-1.1 3.2s-1.8 1.3-3.2 1.3h-2.8C385.7 151.9 381.4 148.2 381.4 140.9z"/><path d="M404.1 138.6v-4.8c0-3.7 1.5-7 4.5-9.6 3-2.7 6.5-4 10.7-4 3.9 0 7.3 1.2 10 3.5 2.8 2.4 4.2 5.4 4.2 9 0 1.4-0.2 2.5-0.5 3.4 -0.4 0.9-0.9 1.5-1.6 1.8 -0.7 0.4-1.4 0.6-1.9 0.7s-1.4 0.2-2.3 0.2h-12.7v0.4c0 1.6 0.6 3 1.8 4 1.2 1 2.9 1.5 4.9 1.5 1.5 0 3.2-0.4 4.9-1.3 1.7-0.8 2.8-1.3 3.4-1.3 1.1 0 2 0.5 2.7 1.6 0.7 1 1.1 2 1.1 2.9 0 1.4-1.2 2.7-3.5 4s-5.3 1.9-8.7 1.9c-4.9 0-8.9-1.3-12-3.9C405.6 146.1 404.1 142.7 404.1 138.6zM414.3 133h8.2c0.9 0 1.4-0.5 1.4-1.4 0-1.1-0.5-2-1.4-2.6 -0.9-0.6-2.1-1-3.4-1 -1.3 0-2.4 0.3-3.3 1s-1.4 1.5-1.4 2.6V133z"/><path d="M341.9 121.6c-0.9-0.6-2.1-0.9-3.6-0.9 -1.3 0-2.4 0.3-3.2 0.9 -0.7 0.5-1.1 1-1.3 1.7 -6.2-4.9-15-7.6-24.8-7.6 -9.7 0-18.5 2.7-24.7 7.6 -0.1-0.7-0.6-1.3-1.3-1.7 -0.9-0.6-2-0.9-3.2-0.9 -1.5 0-2.7 0.3-3.6 0.9 -0.9 0.6-1.4 1.3-1.4 2.2v25.1c0 0.8 0.5 1.6 1.5 2.2 1 0.6 2.2 1 3.6 1 1.4 0 2.6-0.3 3.7-1 1-0.7 1.6-1.4 1.6-2.2l-0.2-6.7h0.1c0-10.8 10.8-22.6 24.1-22.6 13.3 0 24.1 11.8 24.1 22.6h0.1l-0.2 6.7c0 0.8 0.5 1.5 1.6 2.2 1 0.7 2.3 1 3.7 1 1.4 0 2.6-0.3 3.6-1 1-0.6 1.5-1.4 1.5-2.2v-25.1C343.3 122.9 342.9 122.1 341.9 121.6z"/><path d="M250.7 677c-2.8 6.7-8.6 11.3-15.4 14 0.6 15.6-4.5 34.7-9.6 45 3.5-1.7 10.1-14.7 12.3-18.3 7.8-12.9 32.6-58.2 50.6-58.2 4.4 0 7.1 4 6.9 8.5 -0.1 2.2-1.3 1.4-1.3 0.5 0-3.6-2.3-5.5-5.9-5.5 -1.7 0-3.5 0.4-5 1 -15.4 7.1-37.1 44.6-46 58.6 -1.8 2.6-9.9 15.1-12.9 15.1 -0.5 0-0.8-0.4-0.5-0.8 4-9.5 8.1-28.7 6.9-44.5 -1.4 0.4-2.9 0.6-4.4 0.9 2.6 19.4-2.4 41.5-12.2 53.2 -0.5 0.5-1.3-0.1-0.8-0.6 9-10.8 13.6-33.1 11.2-52.3 -13.7 1.4-28.3-3.7-32.6-14.9 -2.3 2.8-4.1 5.9-5.4 9.1 -3.2 8.5-3.6 21.8 8.2 21.8 6.7 0 11.9-6.2 13.1-8 0.8-1.2 0.9-0.3 0.5 0.8 -1.4 3.5-8.6 9.9-15.4 9.9 -13.5 0-13.7-16.8-8.6-26.5 1.8-3.3 4.1-6.5 6.8-9.2 -3.2-12.7 7.8-21.8 18.6-14.4 1.7 1 3.1 2.2 4.4 3.6h0.6c13.8-0.3 19.4 10.6 20.3 24 6.3-2.7 11.5-7.1 14.1-13.1 1.2-2.7 1-5.6 0-6.7 -0.5-0.4 0.1-1.2 0.6-0.8C251.6 670.7 251.8 674.3 250.7 677zM209.4 662.9c-9.9-6.7-18.7 0.8-16.4 12.1 5.8-5.1 12.8-8.6 19.9-9.2C211.8 664.7 210.7 663.8 209.4 662.9zM214.5 667.5c-0.9-0.1-1.8-0.1-2.8-0.1 -6 0-13 3.8-18.2 9.6 3.8 12.2 17.8 17.1 31 15.5C223.1 682.7 219.9 673.8 214.5 667.5zM226.3 692.2c1.4-0.3 2.9-0.5 4.4-1 -1-11.4-5.1-20.9-14.4-23.3C221.7 674.3 224.9 682.9 226.3 692.2z"/><path d="M265.4 732.2c-7.4 5.5-12.3 4.5-11.2-7.2 0.5-5.1 3.7-15.4 4.2-17.2 0.3-1.3 5.5-1.4 5.5 0.5 0 1.3-1.3 6-3.2 6.4 -0.6 0.1-1.3 5.8-1.9 11 -0.8 5.1 0 9.5 5.9 4.6 2.2-1.8 6.3-4.7 7.8-6.5 0.6-0.5 1.3-0.1 0.9 0.6C272.7 725.8 269.1 729.5 265.4 732.2zM271.5 692.2c0 0 3-2.3 0.5-3.8 0 0-1.7-1.6-3.3-0.1 0 0-2.1 0.4-2.2 1.3 0 0-10-4.9-10.8-2.6 0 0 0.2 1.9 2.5 2.6 0 0 1 2.3 6.8 1.4l0.3 1.2c0 0-1.6 0.2-1.7 1l-0.5-0.3c0 0-2.3 1.5-3.1 2.8l0.1 0.5c0 0-1.8 1.2-1.7 1.7l0.5 0.2 -0.9 0.7 -1.2 0.2 1.1 0.1 1.5-1.1 1.5-1.8 1.3-1.3 0.2-0.3c0 0 2.9-0.3 4.9 2.8l0.5-0.9c0 0-1.7-3.3-4.8-2.7 0 0 0.9-0.9 1.5-0.8 2 0.3 2.7 1 3.7 2.5 0.2 0.3 0.3-0.6 0.6-0.8 0 0-1.5-2.1-3-2.3 0 0 1.7-0.3 3 1.7 0 0 1.8 0.1 1.9-1 0 0 0.5 2.7 1.6 3 0 0 1.9 3 3.7 2.2 0 0 3.1 2.1 4.6 0.6 0 0 0.6-0.6-2.4-2.9l-6.2-3.6 0.5-0.1c0 0 0.6 0.6 1.8 0.2l0.4 0.5 -0.2-0.9 -0.5-0.4L271.5 692.2zM268.8 695.1l2.1-0.8 0.2 0.4 -1.6 1h-1L268.8 695.1zM269.7 696.1v2.1l-0.1 2.1 -0.4 0.3 -0.2 2.2 -0.3 0.3 -0.2 1.5 -0.6 0.2 0.5-1.5 0.5-2.7v-0.6l0.2-2.3 0.1-1.2 -1.5 0.1 0.7-1M262.2 695.3c0 0 2.7 0.1 4.5 2.6l-0.7 0.7c0 0-2.4-2.6-4.3-2.4L262.2 695.3zM261.4 697.2c0 0 3.2 0.5 4 2.1l-0.7 0.5c0 0-2-2.1-3.5-1.6L261.4 697.2zM261.3 698.7c0 0 1.7-0.2 3 1.4l-2.1 0.8L261.3 698.7z"/><path d="M283.1 707.6c0 0-4.5 11-5.9 18.5 -2.1 10.9 4.6 7.3 11 3.8 3.7-2.1 8.2-7.2 8.3-5.1 0 1.8-11.7 11.5-18.3 11.4 -4.7-0.3-6.8-1.3-5.1-10.6 1-5.6 6-17.8 5.8-17.8 -2.3 0-7.7 0.9-9.5 1.2 -0.6 0.1-1.2-2.6 0.4-3.2 1.5-0.6 6.9-0.9 10-1 0 0 4-13.6 5.9-17.6 1.3-2.8 5.5 2.8 4.5 5l-6.3 12.6c5.1-0.3 13.1 0.1 13.1 1C297 706.3 285.2 707 283.1 707.6z"/><path d="M316.1 735.6c-5.3-1.8-4.7-12.9-4.7-13.1 0-0.4-7.9 14.4-13.7 13.6 -8.6-1.3-2.6-18.6 7.1-27.7 5-4.6 10.9-7.1 16.4-4.2 3.2 1.8 2.7 6.7-0.3 7.2 2.8-5-2.6-8-9.1-2.3 -5.1 4.4-10.6 12.1-13 17.6 -2.4 6.3-1.5 9.6 4.4 3.8 2.8-2.7 6.4-8 9.5-12.4 2.2-2.9 4.2-4.1 4.1 0.1 -0.3 3.5-0.4 7.2 0 9.7 1 5.3 2.8 7.2 7.7 4.5 3.5-1.9 6.3-5.4 6.8-5.9 0.4-0.3 0.9 0.5 0.9 0.5C331.7 727.7 323.3 737.9 316.1 735.6z"/><path d="M360.8 732.2c-7.4 5.5-12.3 4.5-11.2-7.2 0.5-5.1 3.7-15.4 4.2-17.2 0.3-1.3 5.5-1.4 5.5 0.5 0 1.3-1.3 6-3.2 6.4 -0.6 0.1-1.3 5.8-1.9 11 -0.8 5.1 0 9.5 5.9 4.6 2.2-1.8 6.3-4.7 7.8-6.5 0.6-0.5 1.3-0.1 0.9 0.6C368.1 725.8 364.5 729.5 360.8 732.2z"/><path d="M372.6 726.1c-1.8 8 5.4 4.9 7.7 2.4 4.5-4.9 11.6-14.1 11.9-14.5 1.9-2.1 1.7 0.2 1.2 0.7 -6.6 7-13.1 21.7-19.8 21.5 -4.7-0.3-6.8-1.3-5.1-10.6 1-5.6 5.4-21 7.3-25 1.3-2.8 5.5 2.8 4.5 5C380.3 705.6 374.3 718.7 372.6 726.1z"/><path d="M412.3 736.5c2.9-0.6 4.1-1.7 4.4-3.1 0.4-1.7 1.8-1.9 1.5 0.1 -0.4 2.8-4.2 4.6-6.9 5.3 -4.7 13.2-14.5 29-25.9 36.8 -4 2.7-8.2 4.4-12.3 5 -7.3 1.2-14.7-1.8-17.2-9.2 -2.2-6.7 1-13.2 7.2-17.4 11.7-7.8 30-12.6 44.8-16.4 1.9-4.9 4-17.6 5.1-23.2 -3.3 6-6.7 11.2-11.2 16.4 -0.9 3.3-6.7 8.2-5.4 2.2 1-4.5 5.2-25.2-3.7-17.7 -1.5 1-1.1-0.5-0.3-1.5 2.4-3.1 5.6-3.2 8-1.9 4.1 2.3 1.7 15.4 1.5 15.5 0 0.6 8-10.3 11.4-15.1 0.8-5.5 5.3-4.5 5.3-3.2C418.6 713.8 414.5 731.6 412.3 736.5zM363.8 757.5c-4.1 2.7-8.5 7.4-6.8 12.6 2.2 6.4 10.9 7.6 16.8 6.8 21-2.9 27.2-23.2 33.3-37.3C396 742.1 373.1 751.2 363.8 757.5z"/><path d="M379.3 700.9c0 0-5.1-4.6-6.1-3.6s-13 1.9-12.1 9.5c0 0 11.8-5.1 15.1-2.4"/><path d="M377.8 704.2l5.9-2.5c0 0 7.2 3.7 6.5 8.2C390.1 710 380.7 705.4 377.8 704.2z"/><path d="M379.3 701.9l-0.9-0.4c0 0 0.7-1.6 1.4-3.4 0.9-2.5 1.6-4.4 1.8-5.6 0.3-1.4 0.8-2.7 1.4-4 0.7-1.6 1.4-3.3 1.7-5.3 0.3-2.1 1.1-3.7 2-5.1 0.7-1.2 1.3-2.3 1.6-3.7 0.5-2 1-3.5 1.6-5.2 0.4-1.2 0.8-2.3 1.2-3.7 1-3.3 3.7-5.6 3.8-5.7l0.4 0.6c0 0-2.3 2.3-3.2 5.3 -0.4 1.4-1.1 2.5-1.5 3.6 -0.6 1.6-0.8 3.3-1.3 5.2 -0.4 1.5-0.8 2.8-1.4 4 -0.8 1.5-1.9 2.8-2.2 4.7 -0.3 2.1-1 3.9-1.7 5.6 -0.6 1.3-1.1 2.6-1.3 3.8 -0.2 1.3-0.9 3.2-1.8 5.8C379.9 700.4 379.3 701.9 379.3 701.9z"/><path d="M380.2 698.3c0 0-3.1-2.3-1.5-6.3l0.8 0.5 0.7-1C380.2 691.5 381.8 694 380.2 698.3z"/><path d="M382.9 688.8c0 0-2-3.2-1.5-5.5l0.8 0.4 1.2-1.9C383.4 681.8 384.7 684.7 382.9 688.8z"/><path d="M385.4 680.1l-1.2-5.3 1 0.6c0 0 0.3-2.2 1.3-1.5C386.5 673.8 388.3 677.1 385.4 680.1z"/><path d="M389.2 672.1c0 0-2.4-1.5-2.1-3.4l0.9-3.5 0.6 0.7 0.9 0C389.5 665.9 390.5 669.2 389.2 672.1z"/><path d="M391.7 663.5c0 0-1.2-3.7-0.6-6.5C391.1 656.9 394.3 658.6 391.7 663.5z"/><path d="M393.8 661.3c0 0-0.6-4.4 1.6-6.3l0.3 2.6C395.7 657.6 397.4 659.7 393.8 661.3z"/><path d="M391 666.9c0 0 1.2-3.5 5-4.4C396 662.5 396.1 668.1 391 666.9z"/><path d="M388.1 675.8c0 0 2.7-3.8 5.2-4.8 0 0 0.4 2.6-2.2 4.5C391.1 675.6 390.6 676.9 388.1 675.8z"/><path d="M385.1 684.5c0 0 1.8-2.3 4.8-3.5C389.9 681 390.4 684.6 385.1 684.5z"/><path d="M382 692.6c0 0 1-3.2 3.8-4.1C385.8 688.6 386.1 692.4 382 692.6z"/><path d="M379.2 700.9c0 0 2.5-4.9 4.5-6.2 0 0 0.8 0.8 0.5 2.1C383.8 698.4 382.1 700.6 379.2 700.9z"/><path d="M359.2 703.1c0 0-2.5-3.6 1.3-6.4 0 0 1.9-1.4 3.6-0.9 0 0 1.8 0.1 2.6 0.8 0 0 1 0.3 0.7 1 0 0 0.5 0.8 0 1l-0.4-0.2 -0.4 0.4 0.1 0.3 0.1 0.4 -0.3 0c0 0-1.3-0.6-1.5-0.9l-0.3 0.3 0.5 0.1c0 0 0.3 0.1 0.3 0.4l-0.5 0.4 -0.4-0.2 -0.2 0.3 0 0.4 0 0.5 0 0.3 0 0.5 0.2 0 0.1-0.3 0 0.5 -0.5-0.1 0-0.4 -0.1 0 0-0.8 -0.3-0.1 0.1-0.5 -0.7 0.5 -0.2 0.4 -0.7 0.6 -0.4 0.5 -0.4 0.4 -0.1 0.3 0.2 0.4c0 0-0.5 0.1-0.4-0.8l-0.4 0.6 0 0.3 -0.8 0.8 -0.2-0.1 -0.3 0.3 -0.2-0.6L359.2 703.1z"/><path d="M335.6 712.5c-1.9 6.8-4.6 18.6-1.4 20.9 3.1 2.2 12.1-2.1 15.8-6.9 2.4-3.1 1.8 0.5 0.9 1.7 -2.7 3.5-12.7 9.2-17.3 8.1 -4.2-1-6.7-5.1-3.8-18.2 -1.8 0.4-2.1-1 1-4.2 3.3-13.8 9.1-33.2 20.3-42.6 4.5-3.7 10.3-3.1 10.1 2.3C360.9 687.9 345.3 702.9 335.6 712.5zM352.4 674.4c-5.3 6.2-13.7 26-16.4 35.3 6.7-6.3 23-25.1 23.2-35.4C359.3 668.7 355.3 670.8 352.4 674.4z"/><polygon points="166.1 435.2 170.5 493.5 297.6 486.8 424.7 480 421.3 435.2 "/><polygon points="418.6 406.7 424.9 359.9 298.2 353.1 171.5 346.3 163.4 406.7 "/><polygon class="st0" points="171.1 429.7 175.5 488 302.6 481.3 429.7 474.5 426.3 429.7 "/><polygon class="st0" points="423.9 415.7 430.3 368.9 303.6 362.1 176.9 355.3 168.7 415.7 "/><polygon class="st1" points="213.3 421 213.3 423.9 219.3 423.9 218.1 421 "/><polygon class="st2" points="430.3 424 436.6 377.2 309.9 370.4 183.2 363.7 175.1 424 "/><path class="st1" d="M302.1 415.6c-0.5-0.6-1.3-0.9-2.3-0.9 -1 0-1.9 0.3-2.6 0.8 -0.7 0.6-1.1 1.4-1.3 2.6l-0.8 5.6 6.7 0 0.8-5.6C302.8 417.1 302.6 416.2 302.1 415.6z"/><path class="st1" d="M405.4 416.4c-0.4-0.6-1-0.9-1.9-0.9 -1.1 0-1.8 0.3-2.3 0.9 -0.5 0.6-0.8 1.5-1 2.7l-0.6 4.4 5.5 0 0.7-4.9C405.9 417.7 405.8 416.9 405.4 416.4z"/><path class="st1" d="M222.5 414.8c0.9-0.3 1.6-0.8 2.1-1.3 0.5-0.6 0.9-1.3 1.2-2.2 0.3-0.9 0.5-1.9 0.6-3 0.2-1.1 0.2-2.1 0.2-3 0-0.9-0.3-1.6-0.7-2.2 -0.4-0.6-1-1.1-1.9-1.4 -0.8-0.3-2-0.5-3.5-0.5l-4.2-0.1 -1.9 14.1 4.6 0C220.5 415.3 221.6 415.1 222.5 414.8z"/><path class="st1" d="M250 414.4c-1.1 0-2.1 0.3-2.8 0.9 -0.8 0.6-1.2 1.5-1.4 2.7l-0.5 3.6 7.4 0 0.5-3.6c0.2-1.2-0.1-2.1-0.6-2.7C252 414.7 251.1 414.4 250 414.4z"/><path class="st1" d="M384.3 416.2c-0.4-0.5-1.1-0.8-2-0.8 -0.9 0-1.6 0.3-2.2 0.8 -0.6 0.5-0.9 1.3-1.1 2.4l-0.7 5.2 5.7 0 0.7-5.1C384.9 417.5 384.8 416.7 384.3 416.2z"/><path class="st3" d="M213.7 421l4.8 0 0.7 2.9 7.9 0 -1.2-4.2c2.7-1.1 4.6-2.6 5.9-4.5 1.2-1.9 2-4.1 2.4-6.7 1.2-8.7-2.8-13.2-12.1-13.4l-13-0.3 -3.9 29.2 8.1 0L213.7 421zM216.4 401.1l4.2 0.1c1.5 0 2.6 0.2 3.5 0.5 0.8 0.3 1.5 0.8 1.9 1.4 0.4 0.6 0.6 1.4 0.7 2.2 0 0.9 0 1.9-0.2 3 -0.2 1.1-0.4 2.1-0.6 3 -0.3 0.9-0.7 1.6-1.2 2.2 -0.5 0.6-1.2 1-2.1 1.3 -0.9 0.3-2 0.5-3.4 0.5l-4.6 0L216.4 401.1z"/><path class="st3" d="M260.7 417.9c0.2-1.3 0.1-2.6-0.3-3.8 -0.3-1.2-0.9-2.2-1.8-3.1 -0.8-0.9-1.9-1.6-3.2-2.1 -1.3-0.5-2.9-0.8-4.6-0.8 -2.3 0-4.4 0.4-6.2 1.2 -1.8 0.8-3.3 1.9-4.4 3.3 -0.7 0.8-1.2 1.8-1.5 2.9 -0.3 1.1-0.6 2.3-0.8 3.6l-0.7 5 22.6 0L260.7 417.9zM252.7 421.6l-7.4 0 0.5-3.6c0.2-1.2 0.6-2.1 1.4-2.7 0.8-0.6 1.7-0.9 2.8-0.9 1.1 0 2 0.3 2.6 0.9 0.6 0.6 0.8 1.5 0.6 2.7L252.7 421.6z"/><polygon class="st3" points="271.1 408.8 263.4 408.7 266 423.9 272.8 423.8 "/><polygon class="st3" points="288.4 409 280.9 408.9 275.2 423.8 281.9 423.8 "/><path class="st3" d="M295.9 418.2c0.2-1.1 0.6-2 1.3-2.6 0.7-0.6 1.5-0.8 2.6-0.8 1 0 1.8 0.3 2.3 0.9 0.5 0.6 0.7 1.4 0.6 2.6l-0.8 5.6 6.8 0 0.6-4.6c0.2-1.2 0.2-2.3 0.2-3.3 0-1-0.3-1.9-0.6-2.7 -0.6-1.3-1.6-2.3-3-3.1 -1.4-0.8-3.2-1.2-5.3-1.2 -2.1 0-4 0.3-5.6 1.1 -1.7 0.8-3 1.8-4 3.1 -0.6 0.8-1.1 1.7-1.4 2.7 -0.3 1-0.6 2.2-0.7 3.4l-0.6 4.7 7 0L295.9 418.2z"/><polygon class="st3" points="323.4 397.6 316.8 397.4 313.2 423.8 319.8 423.8 "/><polygon class="st3" points="346.6 409.7 340.3 409.6 338.4 423.7 344.7 423.7 "/><polygon class="st3" points="334 409.6 327.6 409.5 325.6 423.7 332.1 423.7 "/><polygon class="st3" points="357.3 414.3 361.1 414.3 361.7 409.9 357.9 409.9 359.1 401.3 352.9 401.2 351.8 409.8 348.7 409.7 348.1 414.2 351.2 414.2 349.9 423.7 356 423.7 "/><polygon class="st3" points="370 410 364 409.9 362.1 423.7 368.1 423.7 "/><polygon class="st3" points="371.5 398.8 365.5 398.6 364.8 404.3 370.7 404.4 "/><path class="st3" d="M379.1 418.5c0.1-1 0.5-1.8 1.1-2.4 0.6-0.5 1.3-0.8 2.2-0.8 0.9 0 1.5 0.3 2 0.8 0.4 0.5 0.6 1.3 0.4 2.3l-0.7 5.1 5.7 0 0.6-4.2c0.1-1.1 0.2-2.1 0.2-3 0-0.9-0.2-1.8-0.5-2.5 -0.5-1.2-1.4-2.1-2.5-2.9 -1.2-0.7-2.7-1.1-4.4-1.1 -1.8 0-3.4 0.3-4.8 1 -1.4 0.7-2.5 1.7-3.4 2.8 -0.5 0.7-0.9 1.6-1.2 2.5 -0.3 0.9-0.5 2-0.7 3.1l-0.6 4.3 5.9 0L379.1 418.5z"/><path class="st3" d="M400.2 419.2c0.2-1.2 0.5-2.1 1-2.7 0.5-0.6 1.3-0.9 2.3-0.9 0.9 0 1.5 0.3 1.9 0.9 0.4 0.6 0.5 1.3 0.4 2.3l-0.7 4.9 5.5 0 0.9-6.9c0.2-1.2 0.1-2.2-0.1-3 -0.2-0.8-0.5-1.5-1-2 -0.5-0.5-1-0.9-1.7-1.1 -0.7-0.2-1.3-0.4-2-0.4 -1.3 0-2.3 0.2-3.2 0.8 -0.9 0.5-1.7 1.2-2.4 2.1l-0.1 0 0.4-2.6 -5.6-0.1 -1.8 13.3 5.6 0L400.2 419.2z"/><polygon class="st1" points="273 430.2 274.1 425.7 271.7 425.7 272.8 430.2 "/><path class="st1" d="M377.5 430.9c0 1 0.3 1.8 0.8 2.3 0.5 0.5 1.2 0.8 2.1 0.8 0.9 0 1.6-0.3 2.1-0.8 0.5-0.5 0.8-1.3 0.8-2.4v-5.6l-5.7 0V430.9z"/><path class="st1" d="M331.9 433.7c0.5 0.6 1.3 0.9 2.3 0.9 1.2 0 2-0.4 2.5-1.1 0.5-0.7 0.7-1.7 0.7-2.9v-5.2l-6.3 0v5.8C331.1 432.3 331.4 433.1 331.9 433.7z"/><polygon class="st4" points="175.8 424 180.1 482.3 307.2 475.6 434.4 468.8 431 424 "/><path class="st1" d="M294.8 431.7c0.1 1.1 0.4 2 1.1 2.6 0.7 0.6 1.5 0.8 2.5 0.8 1 0 1.8-0.3 2.4-0.9 0.6-0.6 0.8-1.4 0.7-2.6l-0.4-6.1 -6.8 0L294.8 431.7z"/><path class="st1" d="M409.9 425.2l1 13.5 -5.5 0.1 -1-13.6 -5.5 0 1 13.6 -5.6 0.1 -1-13.7 -4.2 0 0.3 4.7c0.1 1.1 0.1 2.1 0 3.1 -0.1 0.9-0.3 1.8-0.7 2.5 -0.6 1.2-1.5 2.2-2.7 2.9 -1.2 0.7-2.7 1.1-4.5 1.2 -1.8 0-3.4-0.3-4.7-1 -1.4-0.7-2.4-1.6-3.2-2.8 -0.5-0.7-0.8-1.6-1-2.5 -0.2-0.9-0.4-2-0.5-3.1l-0.3-4.8 -4.4 0 1 14.1 -6 0.1 -1-14.2 -6.1 0 0.4 6.2c0 0.7 0.2 1.2 0.3 1.6 0.2 0.4 0.4 0.6 0.7 0.8 0.3 0.2 0.7 0.3 1.2 0.3 0.5 0 1.1 0 1.7 0l0.4 5.3 -2.5 0c-1.4 0-2.6-0.2-3.6-0.5 -1-0.4-1.8-0.9-2.4-1.5 -0.6-0.6-1.1-1.3-1.4-2.1 -0.3-0.8-0.5-1.6-0.6-2.3l-0.6-7.7 -5.1 0 1 14.5 -6.3 0.1 -0.2-2.8 -0.1 0c-0.6 0.9-1.3 1.7-2.2 2.3 -0.9 0.6-2.1 0.9-3.6 0.9 -0.8 0-1.6-0.1-2.4-0.3 -0.8-0.2-1.6-0.6-2.2-1.2 -0.7-0.6-1.2-1.3-1.7-2.2 -0.4-0.9-0.7-2-0.8-3.3l-0.6-8 -5.8 0 0.5 6.6c0.1 1.1 0.4 1.9 0.8 2.3 0.5 0.4 1.3 0.6 2.6 0.7l0.4 5.5c-1.5 0-2.9-0.1-4.1-0.2 -1.2-0.2-2.3-0.6-3.2-1.2 -0.9-0.6-1.6-1.4-2.1-2.5 -0.5-1.1-0.9-2.5-1-4.2l-0.5-7 -4.5 0 0.4 5.1c0.1 1.2 0.1 2.3 0 3.3 -0.1 1-0.4 1.9-0.8 2.7 -0.7 1.3-1.8 2.3-3.2 3.2 -1.5 0.8-3.2 1.2-5.4 1.3 -2.1 0-4-0.3-5.6-1.1 -1.6-0.8-2.9-1.8-3.8-3.1 -0.6-0.8-1-1.7-1.2-2.7 -0.3-1-0.4-2.2-0.5-3.4l-0.4-5.2 -6.3 0 -3.6 15.5 -6.4 0.1 -5.9-15.6 -6.1 0 0.2 2.6 -14.9 0.1 0.3 4.3c0.1 1 0.5 1.8 1.2 2.3 0.7 0.5 1.6 0.8 2.8 0.8 1.4 0 2.4-0.4 2.8-1.1 0.4-0.7 0.7-1.4 0.7-2.1l7.5-0.1c0.1 1.3-0.1 2.5-0.5 3.7 -0.4 1.1-1.1 2.1-2 3 -0.9 0.9-2 1.6-3.4 2.1 -1.3 0.5-2.9 0.8-4.6 0.8 -2.3 0-4.4-0.3-6.1-1.1 -1.8-0.8-3.2-1.9-4.2-3.2 -0.6-0.8-1.1-1.8-1.3-2.9 -0.3-1.1-0.5-2.3-0.6-3.6l-0.4-5.5 -10.1 0 7.9 16.1 -8.3 0.2 -7.5-16.2 -6 0 1.2 16.4 -8.2 0.2 -1.2-16.6 -7.6 0 2.1 28.9 216.5-6.4 -1.7-23.3L409.9 425.2z"/><polygon class="st5" points="213.6 442.3 212.4 425.9 204.2 425.9 205.4 442.5 "/><polygon class="st5" points="225.8 442.1 234.1 441.9 226.2 425.8 218.3 425.9 "/><path class="st5" d="M237.3 434.8c0.3 1.1 0.7 2 1.3 2.9 1 1.4 2.4 2.4 4.2 3.2 1.8 0.8 3.8 1.2 6.1 1.1 1.7 0 3.3-0.3 4.6-0.8 1.3-0.5 2.5-1.2 3.4-2.1 0.9-0.8 1.6-1.8 2-3 0.4-1.1 0.6-2.4 0.5-3.7l-7.5 0.1c0 0.7-0.3 1.4-0.7 2.1 -0.4 0.7-1.3 1.1-2.8 1.1 -1.1 0-2.1-0.2-2.8-0.8 -0.7-0.5-1.1-1.3-1.2-2.3l-0.3-4.3 14.9-0.1 -0.2-2.6 -22.6 0.1 0.4 5.5C236.9 432.5 237.1 433.7 237.3 434.8z"/><polygon class="st5" points="277.4 441.1 281 425.6 274.3 425.7 273.5 430.2 273.4 430.2 272 425.7 265.1 425.7 271.1 441.2 "/><path class="st5" d="M288.2 434.2c0.3 1 0.7 1.9 1.2 2.7 0.9 1.3 2.2 2.3 3.8 3.1 1.6 0.8 3.5 1.1 5.6 1.1 2.1 0 3.9-0.5 5.4-1.3 1.5-0.8 2.5-1.9 3.2-3.2 0.4-0.8 0.7-1.7 0.8-2.7 0.1-1 0.1-2.1 0-3.3l-0.4-5.1 -6.8 0 0.4 6.1c0.1 1.1-0.2 2-0.7 2.6 -0.6 0.6-1.4 0.9-2.4 0.9 -1 0-1.9-0.3-2.5-0.8 -0.7-0.6-1-1.4-1.1-2.6l-0.4-6.1 -7 0 0.4 5.2C287.8 432 288 433.2 288.2 434.2z"/><path class="st5" d="M313.9 436.7c0.5 1.1 1.2 1.9 2.1 2.5 0.9 0.6 2 1 3.2 1.2 1.2 0.2 2.6 0.3 4.1 0.2l-0.4-5.5c-1.3-0.1-2.1-0.3-2.6-0.7 -0.5-0.4-0.8-1.2-0.8-2.3l-0.5-6.6 -6.6 0 0.5 7C313.1 434.3 313.4 435.7 313.9 436.7z"/><path class="st5" d="M326.3 436.8c0.4 0.9 1 1.6 1.7 2.2 0.7 0.6 1.4 1 2.2 1.2 0.8 0.2 1.6 0.3 2.4 0.3 1.5 0 2.7-0.3 3.6-0.9 0.9-0.6 1.6-1.4 2.2-2.3l0.1 0 0.2 2.8 6.3-0.1 -1-14.5 -6.3 0 0.4 5.2c0.1 1.3-0.1 2.3-0.5 2.9 -0.4 0.7-1.2 1-2.4 1.1 -1 0-1.8-0.3-2.4-0.9 -0.6-0.6-0.9-1.4-1-2.5l-0.4-5.8 -6.5 0 0.6 8C325.5 434.8 325.8 435.9 326.3 436.8z"/><path class="st5" d="M350.3 435.4c0.3 0.8 0.8 1.5 1.4 2.1 0.6 0.6 1.4 1.1 2.4 1.5 1 0.4 2.2 0.6 3.6 0.5l2.5 0 -0.4-5.3c-0.7 0-1.3 0-1.7 0 -0.5 0-0.9-0.1-1.2-0.3 -0.3-0.2-0.6-0.5-0.7-0.8 -0.2-0.4-0.3-0.9-0.3-1.6l-0.4-6.2 -6.2 0 0.6 7.7C349.8 433.9 350 434.7 350.3 435.4z"/><polygon class="st5" points="368.5 439.4 367.5 425.3 361.4 425.4 362.5 439.6 "/><path class="st5" d="M372.6 433.2c0.2 0.9 0.6 1.8 1 2.5 0.8 1.2 1.8 2.1 3.2 2.8 1.4 0.7 2.9 1 4.7 1 1.8 0 3.3-0.4 4.5-1.2 1.2-0.7 2.1-1.7 2.7-2.9 0.4-0.7 0.6-1.5 0.7-2.5 0.1-0.9 0.1-1.9 0-3.1l-0.3-4.7 -5.7 0 0.4 5.6c0.1 1-0.1 1.8-0.6 2.4 -0.5 0.5-1.1 0.8-2 0.8 -0.9 0-1.6-0.2-2.1-0.8 -0.6-0.5-0.9-1.3-0.9-2.3l-0.4-5.6 -5.9 0 0.3 4.8C372.2 431.2 372.4 432.3 372.6 433.2z"/><polygon class="st5" points="399.9 438.9 399 425.2 393.3 425.2 394.3 439 "/><polygon class="st5" points="405.4 438.8 410.9 438.7 409.9 425.2 404.4 425.2 "/></svg>