<?xml version="1.0" encoding="utf-8"?>
<!-- Generator: Adobe Illustrator 18.1.1, SVG Export Plug-In . SVG Version: 6.00 Build 0)  -->
<svg version="1.1" id="Layer_1" xmlns="http://www.w3.org/2000/svg" xmlns:xlink="http://www.w3.org/1999/xlink" x="0px" y="0px"
	 viewBox="0 0 360 240" enable-background="new 0 0 360 240" xml:space="preserve">
<rect fill="#B3B3B3" width="360" height="164.1"/>
<rect x="133.2" y="17" fill="#808080" width="93.7" height="142.9"/>
<rect y="159.8" fill="#CCCCCC" width="360" height="80.2"/>
<polygon fill="#FFFFFF" points="223,21 137,21 137,159 145.2,167 214.7,167.2 223,159 "/>
<rect x="137" y="47" fill="#999999" width="86" height="53"/>
<rect x="151" y="52.5" fill="#666666" width="58" height="37"/>
<g>
	<polygon fill="#808080" points="151.1,89.5 137,96 137,47 151.1,52.5 	"/>
	<polygon fill="#808080" points="208.9,89.5 223,96 223,47 208.9,52.5 	"/>
</g>
<polygon fill="#E6E6E6" points="214.8,167 145.2,167 137.2,100 222.8,100 "/>
<text transform="matrix(1 0 0 1 163.1289 40)" font-family="'Roboto-Bold'" font-size="16">ATM</text>
<polygon fill="#666666" points="200.3,91.4 159.5,91.4 150,98 210,98 "/>
</svg>
