<?xml version="1.0" encoding="utf-8"?>
<!-- Generator: Adobe Illustrator 18.1.1, SVG Export Plug-In . SVG Version: 6.00 Build 0)  -->
<svg version="1.1" id="Layer_1" xmlns="http://www.w3.org/2000/svg" xmlns:xlink="http://www.w3.org/1999/xlink" x="0px" y="0px"
	 viewBox="0 0 360 240" enable-background="new 0 0 360 240" xml:space="preserve">
<rect y="159.8" fill="#CCCCCC" width="360" height="80.2"/>
<g>
	<circle fill="none" stroke="#999999" stroke-width="3" stroke-miterlimit="10" cx="204.2" cy="76.7" r="13.5"/>
	<circle fill="none" stroke="#999999" stroke-width="3" stroke-miterlimit="10" cx="155.8" cy="76.7" r="13.5"/>
	
		<line fill="none" stroke="#999999" stroke-width="3" stroke-linejoin="bevel" stroke-miterlimit="10" x1="165.1" y1="52.8" x2="183.2" y2="71.6"/>
	<polyline fill="none" stroke="#999999" stroke-width="3" stroke-linejoin="bevel" stroke-miterlimit="10" points="186.6,59.3 
		204.2,76.7 182.2,79.5 164,58.7 	"/>
	<line fill="none" stroke="#999999" stroke-width="3" stroke-miterlimit="10" x1="186.8" y1="57.2" x2="182.2" y2="79.5"/>
	<line fill="none" stroke="#999999" stroke-width="2" stroke-miterlimit="10" x1="188" y1="51" x2="183.5" y2="73.2"/>
	<polyline fill="none" stroke="#999999" stroke-width="3" stroke-miterlimit="10" points="161.8,47.6 165.8,48.5 162.5,62.5 
		155.8,76.7 	"/>
	<path fill="#999999" d="M186,52.3l3,0.9c0.6-0.1,3-0.6,2.9-1.2l-0.1-1.7c-0.1-0.6-0.6-1-1.2-0.9l-6,0.6c-0.6,0.1-1,0.6-0.9,1.2
		l0.1,0.7C183.9,52.5,185.4,52.4,186,52.3z"/>
	<circle fill="#999999" cx="182.2" cy="78.8" r="4.7"/>
	<polyline fill="none" stroke="#999999" stroke-miterlimit="10" points="189.5,61 214.2,60.2 203.2,78.2 	"/>
</g>
<g>
	<circle fill="none" stroke="#666666" stroke-width="6" stroke-miterlimit="10" cx="131.5" cy="178.5" r="27"/>
	<circle fill="none" stroke="#666666" stroke-width="6" stroke-miterlimit="10" cx="228.5" cy="178.5" r="27"/>
	
		<line fill="none" stroke="#666666" stroke-width="6" stroke-linejoin="bevel" stroke-miterlimit="10" x1="209.8" y1="130.7" x2="173.5" y2="168.3"/>
	<polyline fill="none" stroke="#666666" stroke-width="6" stroke-linejoin="bevel" stroke-miterlimit="10" points="166.8,143.7 
		131.5,178.5 175.5,184 212,142.5 	"/>
	<line fill="none" stroke="#666666" stroke-width="6" stroke-miterlimit="10" x1="166.5" y1="139.5" x2="175.5" y2="184"/>
	<line fill="none" stroke="#666666" stroke-width="4" stroke-miterlimit="10" x1="164" y1="127" x2="173" y2="171.5"/>
	<polyline fill="none" stroke="#666666" stroke-width="6" stroke-miterlimit="10" points="216.5,120.3 208.5,122 215,150 
		228.5,178.5 	"/>
	<path fill="#666666" d="M168.1,129.8l-6,1.8c-1.2-0.1-6-1.2-5.9-2.3l0.1-3.4c0.1-1.2,1.2-2,2.3-1.9l12,1.2c1.2,0.1,2,1.2,1.9,2.3
		l-0.1,1.4C172.3,130,169.2,129.9,168.1,129.8z"/>
	<circle fill="#666666" cx="175.5" cy="182.7" r="9.3"/>
	<polyline fill="none" stroke="#666666" stroke-width="2" stroke-miterlimit="10" points="161,147 111.5,145.5 133.5,181.5 	"/>
</g>
<g>
	<polygon fill="#CCCCCC" points="261,126.5 289,146 300,102 272.5,88.5 280.5,80 248.5,82 257,104.5 265,96.5 274,106 	"/>
	<polygon fill="#CCCCCC" points="100.4,84.3 88.5,82.5 61.3,101.7 74,127.5 60,131 100,142 111.5,118.5 98.5,121 80.5,102 	"/>
</g>
</svg>
