<?xml version="1.0" encoding="utf-8"?>
<!-- Generator: Adobe Illustrator 18.1.1, SVG Export Plug-In . SVG Version: 6.00 Build 0)  -->
<svg version="1.1" id="Layer_1" xmlns="http://www.w3.org/2000/svg" xmlns:xlink="http://www.w3.org/1999/xlink" x="0px" y="0px"
	 viewBox="0 0 360 240" enable-background="new 0 0 360 240" xml:space="preserve">
<rect y="159.8" fill="#CCCCCC" width="360" height="80.2"/>
<polygon fill="#CCCCCC" points="43,157.2 51.3,157.2 51.3,56.1 43,63.1 "/>
<polygon fill="#666666" points="51.3,56.1 222.2,91 222.2,157.2 51.3,157.2 "/>
<polygon fill="#CCCCCC" points="254.5,98.7 200.5,85.8 200.5,162 254.5,162 "/>
<polygon fill="#666666" points="235,65.8 140,33.8 140,150.6 235,157.2 "/>
<polygon fill="#CCCCCC" points="140,33.8 62.6,69.6 62.6,151 140,151 "/>
<polygon fill="#808080" points="243.8,126 162.4,116.6 162.4,150.4 243.8,153.9 "/>
<polygon fill="#B3B3B3" points="154.5,153.8 162.4,153.8 162.4,116.6 154.5,117.9 "/>
<polygon fill="#E6E6E6" points="83.8,165 0,211.4 0,240 175.2,240 130,165.8 "/>
<polygon fill="#808080" points="114.3,121 79.3,127.3 80.3,151.3 114.7,151.3 "/>
<polygon fill="#4D4D4D" points="262,154.4 100.9,147.9 100.9,174.7 262,166.7 "/>
<polygon fill="#B3B3B3" points="33.5,152 33.5,169.6 100.9,174.7 100.9,147.9 41.7,152 "/>
<path fill="#333333" d="M314.3,240.6c0,0,6.5-49.8,6.5-51.4c0-1.6-5.8-35.6-5.2-39.2s0.6-29.3,0.4-30.8c-0.2-1.6-1.8-38.5-1.8-38.5
	s-22-27.4-22.6-28.2s-22.3-1.7-23.2-3.2c-0.8-1.6-6.2-17.4-6.2-20.2s-18.8-11.6-19.4-13.2c-0.6-1.6-17.8-9.4-18-10.2
	c-0.2-0.8-3.4-5.6-3.4-5.6h4.2l9.4,6l9.4,3.6l1.8-4.2L245,0h2.2l2.4,6.6l4.8,11.8l12,6.1l7,17l6.2,1l5.8-3.8c0,0,5.8-14.4,6-16.8
	s-5.8-10.1-5.8-10.1L285,3.1L281.8,0h4.2l3.8,3.6l1.4,7.2l7,11.8l-6,21.8L307.8,61l13,6.6l11.4-11.8c0,0,8.4-14.4,9-16.8
	c0.6-2.4,2.6-15.6,4.6-18.6c1.9-3,2.6-8.4,3-9.4s7-7.2,7-7.2l0.7-3.8h3.6v7.2l-5.4,4.6l-1.4,5l-2.2,9.5l4.8,0.1h4.2V30l-4.6,0.7
	l1.8,2.9h2.6v3.6l-4.6-2.2l-2.2-3.4l-2.2,4.2l1.2,10.8l-7.8,13.4l-12.6,19.8l-5,13l3.6,31.8c0,0,1.8,13.8,1.8,14.6
	s2.4,20.6,2.4,20.6l3,24.6l2.2,18.6l3.8,15.4l5.4,17l1.4,4.2L314.3,240.6z"/>
<path fill="#333333" d="M180,0c0.8,4.8,5.8,3.6,7.1,8.4c1.3,4.8-7.9,6.8,1.3,10.8s15.8,9.2,19.3,3.2c3.5-6,3.1-5.2,5.3-9.6
	c2.2-4.4-0.8-8.8,3.1-9.6c4-0.8,4.2,8.8,5.9,8.6c18.8-2.2,5-15.4,11.6-3.8c6.6,11.5,7.4,12.8,15,11.6c7.6-1.2,5.8-2.4,14-5.6
	c8.3-3.2,5.3-6.8,14.2-6.8c8.9,0,5.3-2,15,1.2c9.7,3.2,10.6,2.4,19.8,0.8c9.2-1.6,4.8-5.6,11.4-1.6c6.6,4.1,6.6,3.6,10.1,6.4
	c3.5,2.8,8.4,2,14,2c5.8,0,5.6,2.4,0,3.2c-28.3,4-7.1,15.4-5.8,17.8c1.3,2.4,18.6,6.4,18.6,6.4v-44L162.7,0c0,0,1.7,3.7,4.6,3.6
	C174.7,3.2,180,0,180,0z"/>
<polygon fill="#E6E6E6" points="133.8,180 129.3,173.7 262.6,165.7 272.8,166.7 "/>
<polygon fill="#E6E6E6" points="70.4,177.3 23.8,169.3 33.3,169 78.3,173.3 "/>
<polygon fill="#E6E6E6" points="101.2,175.1 116.7,176 262,154.4 246.7,154 "/>
<polygon fill="#E6E6E6" points="33.5,152 93.5,175 99.8,174.7 42,152.2 "/>
</svg>
