<?xml version="1.0" encoding="utf-8"?>
<!-- Generator: Adobe Illustrator 18.1.1, SVG Export Plug-In . SVG Version: 6.00 Build 0)  -->
<svg version="1.1" id="Layer_1" xmlns="http://www.w3.org/2000/svg" xmlns:xlink="http://www.w3.org/1999/xlink" x="0px" y="0px"
	 viewBox="0 0 360 240" enable-background="new 0 0 360 240" xml:space="preserve">
<rect fill="#999999" width="360" height="166.5"/>
<g>
	<rect x="30.1" y="23.6" fill="#666666" width="299.8" height="135.9"/>
</g>
<rect y="159.8" fill="#CCCCCC" width="360" height="80.2"/>
<rect x="113.8" y="66.1" fill="#333333" width="132.5" height="93.4"/>
<g>
	<rect x="127" y="76" fill="#F2F2F2" width="50" height="72.5"/>
	<rect x="183" y="76" fill="#F2F2F2" width="50" height="72.5"/>
</g>
<text transform="matrix(1 0 0 1 136.5 57.5)" fill="#FFFFFF" font-family="'Roboto-Bold'" font-size="33">CAFE</text>
<g>
	<polygon fill="#FFFFFF" points="291.9,124.3 276.1,124.3 268.7,99.1 299.3,99.1 	"/>
	<rect x="265" y="125.5" fill="#FFFFFF" width="38.5" height="2.5"/>
	<polyline fill="none" stroke="#FFFFFF" stroke-width="2" stroke-miterlimit="10" points="298,108 302.8,108 299.6,117 295,117 	"/>
	<path fill="#FFFFFF" d="M276.3,96.1c0,0-0.2-5,1.8-9.8c1.5-3.6,3.7-4.4,1.2-8.8c0,0,8.5,3.2,5,8.6
		C281.7,90.1,279.7,88.7,276.3,96.1z"/>
	<path fill="#FFFFFF" d="M283.3,92.1c8.1-3.9,5.7-9.4,5.7-9.4s5.7,6,0.7,7.9S280.7,93.4,283.3,92.1z"/>
</g>
<g>
	<polygon fill="#FFFFFF" points="61.6,99.2 61.6,73 64.6,72 64.6,92 66.6,92 66.6,72 69.6,72 69.6,92 71.6,92 71.6,72 74.6,73 
		74.6,99.2 70.4,101.5 70.4,147.2 65.7,147.2 65.7,101.5 	"/>
	<polygon fill="#FFFFFF" points="86.2,114.5 78.5,114.5 78.5,72.2 84.5,74.2 	"/>
	<polygon fill="#FFFFFF" points="83.8,114.5 78.5,114.5 78.5,147.2 82.8,147.2 	"/>
</g>
<polygon fill="#E6E6E6" points="113.5,159.6 58.9,240 301.1,240 246.5,159.6 "/>
<path fill="#CCCCCC" d="M160,116.3h-8.7c-1.6,0-3-1.4-3-3v-8.7c0-1.6,1.4-3,3-3h8.7c1.6,0,3,1.4,3,3v8.7
	C163,115,161.6,116.3,160,116.3z"/>
<circle fill="#CCCCCC" cx="154.3" cy="95.7" r="4.7"/>
<rect x="127" y="113.8" fill="#B3B3B3" width="50" height="34.7"/>
<rect x="183" y="113.8" fill="#B3B3B3" width="50" height="34.7"/>
</svg>
