<?xml version="1.0" encoding="utf-8"?>
<!-- Generator: Adobe Illustrator 17.1.0, SVG Export Plug-In . SVG Version: 6.00 Build 0)  -->
<!DOCTYPE svg PUBLIC "-//W3C//DTD SVG 1.1//EN" "http://www.w3.org/Graphics/SVG/1.1/DTD/svg11.dtd">
<svg version="1.1" id="Layer_1" xmlns="http://www.w3.org/2000/svg" xmlns:xlink="http://www.w3.org/1999/xlink" x="0px" y="0px"
	 viewBox="8 8 32 32" enable-background="new 8 8 32 32" xml:space="preserve">
<path fill="#FFFFFF" d="M24,8C15.2,8,8,15.2,8,24s7.2,16,16,16s16-7.2,16-16S32.8,8,24,8z M25.6,34.6c-1.2,0.2-2.3-0.5-2.5-1.7
	c-0.1-0.3,0-0.5,0-0.8l3.9-0.7c0.1,0.2,0.2,0.5,0.3,0.8C27.6,33.3,26.8,34.4,25.6,34.6z M25,30.9l-9.7,1.8
	c3.7-2.9,1.9-10.3,1.9-10.3c-0.7-3.5,2.3-5.1,3.9-5.7c-0.5-0.2-0.8-0.7-0.8-1.1c-0.2-0.9,0.5-1.9,1.4-2.2c0.9-0.2,1.9,0.5,2.2,1.4
	c0.1,0.6,0,1-0.3,1.5c1.8,0,5,0.5,5.7,4c0,0,1,7.4,5.6,8.8L25,30.9z"/>
</svg>
