<?xml version="1.0" encoding="utf-8"?>
<!-- Generator: Adobe Illustrator 18.1.1, SVG Export Plug-In . SVG Version: 6.00 Build 0)  -->
<svg version="1.1" id="Layer_1" xmlns="http://www.w3.org/2000/svg" xmlns:xlink="http://www.w3.org/1999/xlink" x="0px" y="0px"
	 viewBox="0 0 360 240" enable-background="new 0 0 360 240" xml:space="preserve">
<rect y="159.8" fill="#CCCCCC" width="360" height="80.2"/>
<polygon fill="#E6E6E6" points="86.8,159.6 0,211.4 0,240 175.2,240 145.4,195.6 358.5,195.5 358.5,176 132.4,176.2 121.2,159.6 "/>
<path fill="#666666" d="M0,96.9l2.4,1.5l3.3,1.3l0.6-1.5l-0.4-1.9h0.8l0.8,2.3l1.7,4.1l4.2,2.1l2.4,5.9l2.2,0.3l2-1.3
	c0,0,2-5,2.1-5.9c0.1-0.8-2-3.5-2-3.5l-0.2-3l-1.1-1.1h1.5l1.3,1.3l0.5,2.5l2.4,4.1l-2.1,7.6l5.4,5.8l4.5,2.3l4-4.1
	c0,0,2.9-5,3.1-5.9c0.2-0.8,0.9-5.4,1.6-6.5c0.7-1,0.9-2.9,1-3.3c0.1-0.3,2.4-2.5,2.4-2.5l0.3-1.3H46v2.5l-1.9,1.6l-0.5,1.8
	l-0.8,3.3l1.7,0H46v1.3l-1.6,0.3l0.6,1H46v1.3l-1.6-0.8l-0.8-1.2l-0.8,1.5l0.4,3.8l-2.7,4.7l-4.4,6.9l-1.8,4.5l1.3,11.1
	c0,0,0.6,4.8,0.6,5.1s0.8,7.2,0.8,7.2l1,8.6l0.8,6.5l1.3,5.4l1.9,5.9l0.5,1.5c0,0-3.6,1.9-6.7,2.2c-3,0.3-5.9-1.9-5.9-1.9
	s2.3-17.4,2.3-17.9c0-0.5-2-12.4-1.8-13.7c0.2-1.3,0.2-10.2,0.1-10.7S30,124.4,30,124.4s-7.7-9.5-7.9-9.8c-0.2-0.3-7.8-0.6-8.1-1.1
	c-0.3-0.5-2.2-6.1-2.2-7s-6.6-4.1-6.8-4.6C5,101.5,1.8,99.9,0,99L0,96.9z"/>
<path fill="#666666" d="M0,100c3.3-1.4,0-4.3,2-0.8c2.3,4,2.6,4.5,5.2,4.1c2.6-0.4,2-0.8,4.9-2c2.9-1.1,1.8-2.4,4.9-2.4
	s1.8-0.7,5.2,0.4c3.4,1.1,3.7,0.8,6.9,0.3s1.7-2,4-0.5c2.3,1.4,2.3,1.3,3.5,2.2c1.2,1,2.9,0.7,4.9,0.7c2,0,2,0.8,0,1.1
	c-9.9,1.4-2.5,5.4-2,6.2c0.5,0.8,6.5,2.2,6.5,2.2s17-1.8,21-6.5s12.7-7,10-14.3c-2.7-7.3,4-17-3.3-20.3c-7.3-3.3-10,0-20-1.7
	C43.7,67,41,60,33,59.7c-8-0.3-15.3,2-22,5.3c-3,1.5-6.8,1.9-11,2.2L0,100z"/>
<g>
	<rect x="230.5" y="162.5" fill="#999999" width="23.1" height="77.5"/>
	<g>
		<path fill="#4D4D4D" d="M296.3,165c0,3.3-2.7,6-6,6h-96.5c-3.3,0-6-2.7-6-6V41c0-3.3,2.7-6,6-6h96.5c3.3,0,6,2.7,6,6V165z"/>
	</g>
	<g>
		<path fill="#FFFFFF" d="M230.8,92.5V115h-13.2V51h25c3.8,0,7.2,0.5,10.1,1.6c3,1.1,5.5,2.5,7.6,4.4c2.1,1.9,3.6,4.1,4.7,6.7
			s1.6,5.4,1.6,8.5c0,3.1-0.5,5.9-1.6,8.4c-1.1,2.5-2.7,4.6-4.7,6.4c-2.1,1.8-4.6,3.1-7.6,4.1c-3,1-6.3,1.4-10.1,1.4H230.8z
			 M230.8,81.8h11.8c1.9,0,3.5-0.2,4.9-0.7c1.4-0.5,2.5-1.1,3.3-2c0.9-0.8,1.5-1.8,1.9-3c0.4-1.2,0.6-2.4,0.6-3.8
			c0-1.4-0.2-2.7-0.6-4s-1-2.4-1.9-3.4c-0.9-1-2-1.8-3.3-2.4c-1.4-0.6-3-0.9-4.9-0.9h-11.8V81.8z"/>
	</g>
	<polygon fill="#FFFFFF" points="271.4,143.1 247.8,129.4 249.8,138 213,138 213,148 249.8,148 247.8,156.7 	"/>
</g>
</svg>
