<?xml version="1.0" encoding="utf-8"?>
<!-- Generator: Adobe Illustrator 18.1.1, SVG Export Plug-In . SVG Version: 6.00 Build 0)  -->
<svg version="1.1" id="Layer_1" xmlns="http://www.w3.org/2000/svg" xmlns:xlink="http://www.w3.org/1999/xlink" x="0px" y="0px"
	 viewBox="-671 577 48 48" enable-background="new -671 577 48 48" xml:space="preserve">
<path fill="#404041" d="M-640,591.1h-14c-1.7,0-3,1.3-3,3v12c0,1.6,1.2,2.8,2.8,3v1.9h2v-1.8h10.8v1.8h2V609
	c1.4-0.2,2.5-1.5,2.5-2.9v-12C-637,592.4-638.3,591.1-640,591.1z M-653.2,607c-0.8,0-1.5-0.7-1.5-1.5c0-0.8,0.7-1.5,1.5-1.5
	s1.5,0.7,1.5,1.5C-651.8,606.3-652.4,607-653.2,607z M-640.5,607c-0.8,0-1.5-0.7-1.5-1.5c0-0.8,0.7-1.5,1.5-1.5s1.5,0.7,1.5,1.5
	C-639,606.3-639.7,607-640.5,607z M-639,599.8c0,1.1-0.9,2-2,2h-12c-1.1,0-2-0.9-2-2v-5c0-1.1,0.9-2,2-2h12c1.1,0,2,0.9,2,2V599.8z"
	/>
</svg>
